<svg width="33" height="33" viewBox="0 0 33 33" fill="none" xmlns="http://www.w3.org/2000/svg">
<g clip-path="url(#clip0_340_3288)">
<mask id="path-1-inside-1_340_3288" fill="white">
<path d="M15.3385 7.2454V7.28674C15.3391 8.09514 15.2108 8.89758 14.9595 9.65874L14.9743 9.6094C14.7299 10.3511 14.3148 11.0129 13.7682 11.5321L13.7633 11.5361C13.2452 12.0414 12.556 12.3494 11.8004 12.3494H11.7413H11.7438C10.7469 12.3432 9.79218 11.9127 9.0856 11.1507C8.31368 10.3831 7.71314 9.43513 7.32946 8.37874L7.31346 8.32807C6.94158 7.3297 6.74581 6.26463 6.73629 5.18807V5.1414C6.73629 4.3094 6.87043 3.51074 7.11533 2.7694L7.10056 2.81874C7.3449 2.07703 7.76003 1.41523 8.3066 0.896071L8.31152 0.892071C8.86767 0.349946 9.5942 0.0589366 10.3421 0.0787373H10.3384C11.3356 0.0833552 12.2909 0.514104 12.9966 1.2774C13.7608 2.04503 14.3563 2.98865 14.7392 4.03874L14.7552 4.0894C15.1109 5.02274 15.3213 6.10674 15.3324 7.2414V7.2454H15.3385ZM8.76071 17.3094L8.76194 17.4214C8.76342 18.424 8.47745 19.4024 7.94356 20.2214L7.9534 20.2054C7.70995 20.5854 7.38525 20.8959 7.00701 21.1104C6.62877 21.325 6.20824 21.4371 5.7813 21.4374L5.65947 21.4347H5.66562C4.65692 21.4227 3.68738 21.0099 2.94096 20.2747L2.94465 20.2787C2.15061 19.5419 1.50835 18.6324 1.05954 17.6094C0.610723 16.5863 0.365363 15.4725 0.339365 14.3401V14.3294L0.338135 14.2201C0.338135 13.1734 0.640875 12.2027 1.15652 11.4067L1.14667 11.4227C1.39997 11.0216 1.74362 10.6971 2.14506 10.4801C2.5465 10.2631 2.99243 10.1607 3.44061 10.1827H3.43445C4.44316 10.1948 5.4127 10.6075 6.15911 11.3427L6.15542 11.3387C6.9507 12.08 7.59352 12.9938 8.0423 14.0212C8.49108 15.0485 8.73582 16.1665 8.76071 17.3027V17.3121V17.3094ZM16.3428 16.7467C18.1395 16.853 19.8602 17.5669 21.2629 18.7881L21.2457 18.7734C22.9626 20.0945 24.442 21.7448 25.6108 23.6427L25.6502 23.7107C26.7036 25.2441 27.3193 27.0784 27.4211 28.9867L27.4223 29.0134L27.4248 29.1294C27.4248 29.6681 27.3029 30.1774 27.0876 30.6241L27.0949 30.6067C26.8883 31.0163 26.5656 31.3431 26.1744 31.5387L26.1621 31.5441C25.804 31.7294 25.3868 31.8747 24.9512 31.9561L24.9216 31.9601C24.4673 32.0377 24.0081 32.076 23.5482 32.0747H23.4559H23.4608C22.1928 31.9838 20.9488 31.6563 19.7836 31.1067L19.855 31.1374C18.7547 30.6176 17.5815 30.3016 16.3846 30.2027L16.3464 30.2001C14.989 30.3094 13.7313 30.6401 12.5622 31.1587L12.6446 31.1267C11.4255 31.6572 10.135 31.9697 8.82347 32.0521L8.78901 32.0534C6.43765 32.0552 5.26197 31.0423 5.26197 29.0147C5.31526 27.594 5.69239 26.2097 6.35971 24.9854L6.33879 25.0254C7.05877 23.5584 7.96333 22.2068 9.02653 21.0094L9.02161 21.0147C10.0608 19.8388 11.2492 18.8291 12.5511 18.0161L12.6274 17.9721C13.7393 17.2204 15.0134 16.7971 16.3231 16.7441H16.3378L16.3428 16.7467ZM20.9392 12.3507H20.8826C20.1569 12.3516 19.4566 12.0608 18.9173 11.5347L18.9197 11.5374C18.3775 11.0259 17.9642 10.3735 17.7186 9.6414L17.7088 9.6094C17.4646 8.8637 17.341 8.07797 17.3433 7.28674V7.24274V7.2454C17.3543 6.1054 17.5648 5.02274 17.9401 4.03074L17.9204 4.0894C18.3018 3.02159 18.9018 2.06147 19.6754 1.2814L19.6803 1.2774C20.3862 0.515406 21.3408 0.0852606 22.3373 0.0800707H22.3951C23.1507 0.0800707 23.8399 0.389404 24.3604 0.896071L24.358 0.893404C24.897 1.40407 25.313 2.05207 25.5591 2.7894L25.5689 2.8214C25.804 3.5174 25.9394 4.3214 25.9394 5.15874V5.1854V5.18407C25.9287 6.2833 25.7262 7.37042 25.3425 8.38807L25.3622 8.3294C24.9806 9.40305 24.3759 10.3671 23.595 11.1467L23.5901 11.1521C22.8831 11.9121 21.929 12.3411 20.9331 12.3467H20.9318L20.9392 12.3507ZM29.2461 10.1854L29.3593 10.1827C30.259 10.1827 31.0527 10.6707 31.5278 11.4161L31.5339 11.4254C32.0626 12.246 32.3449 13.2233 32.3424 14.2241L32.3412 14.3387V14.3334C32.317 15.4651 32.0734 16.5786 31.6263 17.6017C31.1791 18.6248 30.5384 19.5346 29.7458 20.2721L29.7359 20.2814C28.9907 21.0139 28.0236 21.4251 27.0174 21.4374H27.015C26.5705 21.459 26.1283 21.3585 25.7294 21.1452C25.3304 20.9319 24.9878 20.6127 24.7333 20.2174L24.7272 20.2081C24.1774 19.36 23.8943 18.3427 23.9199 17.3067V17.3121C23.9434 16.1764 24.1866 15.0587 24.6337 14.0312C25.0807 13.0037 25.7217 12.0892 26.5153 11.3467L26.5252 11.3374C27.2696 10.6072 28.2347 10.1971 29.2387 10.1841H29.2412L29.2461 10.1854Z"/>
</mask>
<path d="M15.3385 7.2454V7.28674C15.3391 8.09514 15.2108 8.89758 14.9595 9.65874L14.9743 9.6094C14.7299 10.3511 14.3148 11.0129 13.7682 11.5321L13.7633 11.5361C13.2452 12.0414 12.556 12.3494 11.8004 12.3494H11.7413H11.7438C10.7469 12.3432 9.79218 11.9127 9.0856 11.1507C8.31368 10.3831 7.71314 9.43513 7.32946 8.37874L7.31346 8.32807C6.94158 7.3297 6.74581 6.26463 6.73629 5.18807V5.1414C6.73629 4.3094 6.87043 3.51074 7.11533 2.7694L7.10056 2.81874C7.3449 2.07703 7.76003 1.41523 8.3066 0.896071L8.31152 0.892071C8.86767 0.349946 9.5942 0.0589366 10.3421 0.0787373H10.3384C11.3356 0.0833552 12.2909 0.514104 12.9966 1.2774C13.7608 2.04503 14.3563 2.98865 14.7392 4.03874L14.7552 4.0894C15.1109 5.02274 15.3213 6.10674 15.3324 7.2414V7.2454H15.3385ZM8.76071 17.3094L8.76194 17.4214C8.76342 18.424 8.47745 19.4024 7.94356 20.2214L7.9534 20.2054C7.70995 20.5854 7.38525 20.8959 7.00701 21.1104C6.62877 21.325 6.20824 21.4371 5.7813 21.4374L5.65947 21.4347H5.66562C4.65692 21.4227 3.68738 21.0099 2.94096 20.2747L2.94465 20.2787C2.15061 19.5419 1.50835 18.6324 1.05954 17.6094C0.610723 16.5863 0.365363 15.4725 0.339365 14.3401V14.3294L0.338135 14.2201C0.338135 13.1734 0.640875 12.2027 1.15652 11.4067L1.14667 11.4227C1.39997 11.0216 1.74362 10.6971 2.14506 10.4801C2.5465 10.2631 2.99243 10.1607 3.44061 10.1827H3.43445C4.44316 10.1948 5.4127 10.6075 6.15911 11.3427L6.15542 11.3387C6.9507 12.08 7.59352 12.9938 8.0423 14.0212C8.49108 15.0485 8.73582 16.1665 8.76071 17.3027V17.3121V17.3094ZM16.3428 16.7467C18.1395 16.853 19.8602 17.5669 21.2629 18.7881L21.2457 18.7734C22.9626 20.0945 24.442 21.7448 25.6108 23.6427L25.6502 23.7107C26.7036 25.2441 27.3193 27.0784 27.4211 28.9867L27.4223 29.0134L27.4248 29.1294C27.4248 29.6681 27.3029 30.1774 27.0876 30.6241L27.0949 30.6067C26.8883 31.0163 26.5656 31.3431 26.1744 31.5387L26.1621 31.5441C25.804 31.7294 25.3868 31.8747 24.9512 31.9561L24.9216 31.9601C24.4673 32.0377 24.0081 32.076 23.5482 32.0747H23.4559H23.4608C22.1928 31.9838 20.9488 31.6563 19.7836 31.1067L19.855 31.1374C18.7547 30.6176 17.5815 30.3016 16.3846 30.2027L16.3464 30.2001C14.989 30.3094 13.7313 30.6401 12.5622 31.1587L12.6446 31.1267C11.4255 31.6572 10.135 31.9697 8.82347 32.0521L8.78901 32.0534C6.43765 32.0552 5.26197 31.0423 5.26197 29.0147C5.31526 27.594 5.69239 26.2097 6.35971 24.9854L6.33879 25.0254C7.05877 23.5584 7.96333 22.2068 9.02653 21.0094L9.02161 21.0147C10.0608 19.8388 11.2492 18.8291 12.5511 18.0161L12.6274 17.9721C13.7393 17.2204 15.0134 16.7971 16.3231 16.7441H16.3378L16.3428 16.7467ZM20.9392 12.3507H20.8826C20.1569 12.3516 19.4566 12.0608 18.9173 11.5347L18.9197 11.5374C18.3775 11.0259 17.9642 10.3735 17.7186 9.6414L17.7088 9.6094C17.4646 8.8637 17.341 8.07797 17.3433 7.28674V7.24274V7.2454C17.3543 6.1054 17.5648 5.02274 17.9401 4.03074L17.9204 4.0894C18.3018 3.02159 18.9018 2.06147 19.6754 1.2814L19.6803 1.2774C20.3862 0.515406 21.3408 0.0852606 22.3373 0.0800707H22.3951C23.1507 0.0800707 23.8399 0.389404 24.3604 0.896071L24.358 0.893404C24.897 1.40407 25.313 2.05207 25.5591 2.7894L25.5689 2.8214C25.804 3.5174 25.9394 4.3214 25.9394 5.15874V5.1854V5.18407C25.9287 6.2833 25.7262 7.37042 25.3425 8.38807L25.3622 8.3294C24.9806 9.40305 24.3759 10.3671 23.595 11.1467L23.5901 11.1521C22.8831 11.9121 21.929 12.3411 20.9331 12.3467H20.9318L20.9392 12.3507ZM29.2461 10.1854L29.3593 10.1827C30.259 10.1827 31.0527 10.6707 31.5278 11.4161L31.5339 11.4254C32.0626 12.246 32.3449 13.2233 32.3424 14.2241L32.3412 14.3387V14.3334C32.317 15.4651 32.0734 16.5786 31.6263 17.6017C31.1791 18.6248 30.5384 19.5346 29.7458 20.2721L29.7359 20.2814C28.9907 21.0139 28.0236 21.4251 27.0174 21.4374H27.015C26.5705 21.459 26.1283 21.3585 25.7294 21.1452C25.3304 20.9319 24.9878 20.6127 24.7333 20.2174L24.7272 20.2081C24.1774 19.36 23.8943 18.3427 23.9199 17.3067V17.3121C23.9434 16.1764 24.1866 15.0587 24.6337 14.0312C25.0807 13.0037 25.7217 12.0892 26.5153 11.3467L26.5252 11.3374C27.2696 10.6072 28.2347 10.1971 29.2387 10.1841H29.2412L29.2461 10.1854Z" fill="white" stroke="white" stroke-width="2" mask="url(#path-1-inside-1_340_3288)"/>
</g>
<defs>
<clipPath id="clip0_340_3288">
<rect width="32" height="32" fill="white" transform="translate(0.336426 0.0773926)"/>
</clipPath>
</defs>
</svg>
