<svg width="32" height="32" viewBox="0 0 32 32" fill="none" xmlns="http://www.w3.org/2000/svg">
<path d="M10.5861 3.27197C10.2111 3.64703 10.0005 4.15565 10.0005 4.68597C10.0005 5.2163 10.2111 5.72492 10.5861 6.09997L20.4861 16L10.5861 25.9C10.2217 26.2772 10.0202 26.7824 10.0247 27.3068C10.0293 27.8312 10.2396 28.3328 10.6104 28.7036C10.9812 29.0744 11.4829 29.2848 12.0073 29.2893C12.5317 29.2939 13.0369 29.0923 13.4141 28.728L24.7281 17.414C25.103 17.0389 25.3136 16.5303 25.3136 16C25.3136 15.4696 25.103 14.961 24.7281 14.586L13.4141 3.27197C13.039 2.89703 12.5304 2.6864 12.0001 2.6864C11.4697 2.6864 10.9611 2.89703 10.5861 3.27197Z" fill="black"/>
</svg>
