<svg width="32" height="30" viewBox="0 0 32 30" fill="none" xmlns="http://www.w3.org/2000/svg">
<g clip-path="url(#clip0_49_1374)">
<path d="M5.67527 28.4555C5.52081 29.3347 6.38814 30.0218 7.15249 29.6297L15.8456 25.1624L24.5367 29.6297C25.301 30.0218 26.1683 29.3347 26.0139 28.4574L24.3703 19.0911L31.3446 12.4456C31.998 11.8238 31.6614 10.6871 30.7862 10.5644L21.0871 9.18615L16.7624 0.617836C16.68 0.444151 16.55 0.297407 16.3876 0.194653C16.2251 0.091899 16.0368 0.0373535 15.8446 0.0373535C15.6523 0.0373535 15.4641 0.091899 15.3016 0.194653C15.1391 0.297407 15.0091 0.444151 14.9268 0.617836L10.602 9.18813L0.902989 10.5664C0.029722 10.6891 -0.308892 11.8258 0.342593 12.4475L7.31883 19.0931L5.67527 28.4594V28.4555ZM15.3881 22.9763L8.08913 26.7267L9.46338 18.8911C9.49647 18.7107 9.4843 18.525 9.42797 18.3504C9.37164 18.1759 9.27291 18.0181 9.14061 17.8911L3.38616 12.406L11.4099 11.2654C11.5758 11.2395 11.733 11.1742 11.8684 11.0749C12.0039 10.9757 12.1135 10.8454 12.1881 10.6951L15.8416 3.4515L19.499 10.6951C19.5737 10.8454 19.6833 10.9757 19.8187 11.0749C19.9541 11.1742 20.1114 11.2395 20.2772 11.2654L28.301 12.404L22.5466 17.8891C22.4139 18.0163 22.315 18.1745 22.2587 18.3494C22.2024 18.5243 22.1904 18.7104 22.2238 18.8911L23.598 26.7267L16.299 22.9763C16.158 22.903 16.0015 22.8648 15.8426 22.8648C15.6837 22.8648 15.5291 22.903 15.3881 22.9763Z" fill="#FFCE6F"/>
</g>
<defs>
<clipPath id="clip0_49_1374">
<rect width="32" height="29.7822" fill="white"/>
</clipPath>
</defs>
</svg>
