<svg width="32" height="32" viewBox="0 0 32 32" fill="none" xmlns="http://www.w3.org/2000/svg">
<path d="M15 24C15 24.2652 15.1054 24.5196 15.2929 24.7071C15.4804 24.8946 15.7348 25 16 25C16.2652 25 16.5196 24.8946 16.7071 24.7071C16.8946 24.5196 17 24.2652 17 24V20C17 19.7348 16.8946 19.4804 16.7071 19.2929C16.5196 19.1054 16.2652 19 16 19C15.7348 19 15.4804 19.1054 15.2929 19.2929C15.1054 19.4804 15 19.7348 15 20V24Z" fill="white"/>
<path fill-rule="evenodd" clip-rule="evenodd" d="M16.0001 1.66666C15.0561 1.66666 14.1987 1.93732 13.2667 2.38932C12.3681 2.82666 11.3281 3.47199 10.0307 4.27732L7.27475 5.98799C6.04808 6.75066 5.06275 7.36132 4.30541 7.94132C3.52008 8.54132 2.91741 9.15466 2.48141 9.95066C2.04675 10.744 1.85208 11.5893 1.75741 12.588C1.66675 13.5547 1.66675 14.7387 1.66675 16.2227V18.3733C1.66675 20.912 1.66675 22.916 1.87075 24.4827C2.07875 26.0893 2.51875 27.3867 3.51075 28.412C4.50675 29.4427 5.77341 29.904 7.34408 30.1213C8.86408 30.3333 10.8081 30.3333 13.2561 30.3333H18.7441C21.1921 30.3333 23.1361 30.3333 24.6561 30.1213C26.2254 29.904 27.4934 29.4427 28.4907 28.412C29.4814 27.3867 29.9214 26.0893 30.1307 24.4827C30.3334 22.916 30.3334 20.912 30.3334 18.3733V16.2227C30.3334 14.7387 30.3334 13.556 30.2427 12.588C30.1494 11.588 29.9534 10.744 29.5187 9.95066C29.0827 9.15466 28.4787 8.54266 27.6947 7.94132C26.9374 7.35999 25.9534 6.75066 24.7254 5.98799L21.9694 4.27732C20.6721 3.47199 19.6321 2.82666 18.7321 2.38932C17.8027 1.93599 16.9454 1.66666 16.0001 1.66666ZM11.0401 6.00532C12.3934 5.16532 13.3467 4.57599 14.1427 4.18799C14.9174 3.81066 15.4667 3.66666 16.0001 3.66666C16.5334 3.66666 17.0827 3.81066 17.8574 4.18799C18.6547 4.57466 19.6067 5.16532 20.9601 6.00532L23.6267 7.65999C24.9081 8.45599 25.8081 9.01466 26.4801 9.52932C27.1321 10.0293 27.5067 10.4413 27.7641 10.9107C28.0214 11.3813 28.1721 11.932 28.2507 12.7747C28.3321 13.6387 28.3334 14.728 28.3334 16.272V18.3C28.3334 20.9267 28.3307 22.8013 28.1467 24.224C27.9654 25.6213 27.6227 26.432 27.0534 27.0227C26.4867 27.608 25.7161 27.956 24.3814 28.1413C23.0134 28.3307 21.2094 28.3333 18.6667 28.3333H13.3334C10.7894 28.3333 8.98675 28.3307 7.61875 28.1413C6.28408 27.9547 5.51341 27.608 4.94808 27.0213C4.37741 26.432 4.03475 25.6213 3.85475 24.224C3.66808 22.8013 3.66675 20.928 3.66675 18.3V16.272C3.66675 14.728 3.66675 13.6387 3.74941 12.7747C3.82808 11.932 3.97875 11.3813 4.23608 10.9107C4.49341 10.4413 4.86808 10.0293 5.52141 9.52932C6.19208 9.01466 7.09208 8.45599 8.37341 7.65999L11.0401 6.00532Z" fill="white"/>
</svg>
