<svg width="32" height="32" viewBox="0 0 32 32" fill="none" xmlns="http://www.w3.org/2000/svg">
<rect width="32" height="32" rx="16" fill="#DACBAF"/>
<g clip-path="url(#clip0_208_1800)">
<path fill-rule="evenodd" clip-rule="evenodd" d="M5.78625 18.0929C5.18934 17.3815 5.28272 16.3214 5.9934 15.7251L17.8381 5.7862C18.5488 5.18987 19.6096 5.28267 20.2059 5.99335L21.9494 8.07116C22.0253 8.16156 22.0762 8.27038 22.0967 8.38666C22.1172 8.50294 22.1068 8.62258 22.0664 8.73354C21.9449 9.0663 21.9131 9.42522 21.9744 9.77414C22.0358 10.1231 22.1879 10.4497 22.4157 10.721C22.6434 10.9924 22.9386 11.199 23.2716 11.32C23.6045 11.4409 23.9635 11.472 24.3123 11.4101C24.4286 11.3896 24.5482 11.4001 24.6592 11.4405C24.7701 11.4809 24.8685 11.5499 24.9443 11.6404L26.6878 13.7182C27.2841 14.4289 27.1913 15.4896 26.4806 16.086L14.6359 26.0249C14.2945 26.3114 13.8532 26.4505 13.4091 26.4117C12.9651 26.3728 12.5547 26.1592 12.2681 25.8177L10.5247 23.7399C10.4487 23.6496 10.3978 23.5409 10.3771 23.4248C10.3565 23.3086 10.3668 23.189 10.407 23.0781C10.5285 22.7453 10.5602 22.3864 10.4989 22.0375C10.4376 21.6886 10.2854 21.362 10.0577 21.0906C9.82998 20.8192 9.53477 20.6126 9.2018 20.4917C8.86883 20.3707 8.50986 20.3396 8.16105 20.4015C8.04482 20.4218 7.92529 20.4112 7.81447 20.3707C7.70365 20.3302 7.60545 20.2612 7.52973 20.1707L5.78625 18.0929ZM15.4378 8.67788C15.5744 8.56327 15.7509 8.50762 15.9285 8.52316C16.1062 8.5387 16.2703 8.62416 16.3849 8.76074L16.8171 9.27573C16.9317 9.41231 16.9873 9.58883 16.9718 9.76645C16.9562 9.94407 16.8708 10.1082 16.7342 10.2228C16.5976 10.3375 16.4211 10.3931 16.2435 10.3776C16.0659 10.362 15.9017 10.2766 15.7871 10.14L15.355 9.62499C15.2403 9.48841 15.1847 9.31189 15.2002 9.13428C15.2158 8.95666 15.3012 8.79249 15.4378 8.67788ZM18.5456 11.3357C18.431 11.1991 18.2668 11.1136 18.0892 11.0981C17.9115 11.0826 17.735 11.1382 17.5984 11.2528C17.4619 11.3674 17.3764 11.5316 17.3609 11.7092C17.3453 11.8868 17.401 12.0634 17.5156 12.1999L17.9477 12.7149C18.0623 12.8515 18.2265 12.937 18.4041 12.9525C18.5817 12.968 18.7582 12.9124 18.8948 12.7978C19.0314 12.6832 19.1169 12.519 19.1324 12.3414C19.1479 12.1638 19.0923 11.9873 18.9777 11.8507L18.5456 11.3357ZM19.7591 13.8278C19.8957 13.7132 20.0722 13.6575 20.2498 13.673C20.4274 13.6886 20.5916 13.774 20.7062 13.9106L21.1383 14.4256C21.2529 14.5622 21.3086 14.7387 21.293 14.9163C21.2775 15.0939 21.192 15.2581 21.0555 15.3727C20.9189 15.4873 20.7424 15.543 20.5647 15.5274C20.3871 15.5119 20.2229 15.4264 20.1083 15.2899L19.6762 14.7749C19.5616 14.6383 19.506 14.4618 19.5215 14.2842C19.537 14.1065 19.6225 13.9424 19.7591 13.8278ZM22.8668 16.4856C22.7522 16.349 22.588 16.2635 22.4104 16.248C22.2328 16.2324 22.0563 16.2881 21.9197 16.4027C21.7831 16.5173 21.6977 16.6815 21.6821 16.8591C21.6666 17.0367 21.7222 17.2132 21.8368 17.3498L22.269 17.8648C22.3836 18.0014 22.5477 18.0868 22.7254 18.1024C22.903 18.1179 23.0795 18.0623 23.2161 17.9477C23.3527 17.8331 23.4381 17.6689 23.4537 17.4913C23.4692 17.3136 23.4136 17.1371 23.2989 17.0005L22.8668 16.4856ZM12.1171 19.3625C12.0025 19.226 11.9469 19.0494 11.9624 18.8718C11.9779 18.6942 12.0634 18.53 12.2 18.4154L15.8049 15.3905C15.9415 15.2759 16.118 15.2203 16.2956 15.2358C16.4732 15.2514 16.6374 15.3368 16.752 15.4734C16.8666 15.61 16.9223 15.7865 16.9067 15.9641C16.8912 16.1417 16.8057 16.3059 16.6691 16.4205L13.0642 19.4454C12.9277 19.56 12.7511 19.6157 12.5735 19.6001C12.3959 19.5846 12.2317 19.4991 12.1171 19.3625ZM13.9285 20.4754C13.7919 20.59 13.7064 20.7542 13.6909 20.9318C13.6754 21.1094 13.731 21.2859 13.8456 21.4225C13.9602 21.5591 14.1244 21.6445 14.302 21.6601C14.4796 21.6756 14.6562 21.62 14.7927 21.5053L16.8527 19.7768C16.9893 19.6622 17.0747 19.4981 17.0903 19.3204C17.1058 19.1428 17.0502 18.9663 16.9356 18.8297C16.8209 18.6931 16.6568 18.6077 16.4792 18.5921C16.3015 18.5766 16.125 18.6323 15.9884 18.7469L13.9285 20.4754Z" fill="white"/>
</g>
<defs>
<clipPath id="clip0_208_1800">
<rect width="18.8235" height="13.4454" fill="white" transform="translate(4.70593 16.8054) rotate(-40)"/>
</clipPath>
</defs>
</svg>
