<svg width="52" height="52" viewBox="0 0 52 52" fill="none" xmlns="http://www.w3.org/2000/svg">
<path d="M27.3789 30.0154C23.5787 34.0973 9.02813 41.0212 13.5708 48.5625C15.2009 51.2671 19.9011 50.9921 23.1512 50.9921H28.8465C37.3843 50.9921 41.652 50.9921 44.5721 48.565C47.4922 46.1354 48.1173 42.066 49.3698 33.9248L50.1199 29.0281C51.0049 23.2865 51.4449 20.4169 50.3599 17.8698C49.2748 15.3252 46.8647 13.583 42.047 10.1011L38.4494 7.49898C32.4566 3.16716 29.459 1 26.0013 1C22.5437 1 19.5461 3.16716 13.5533 7.49898L9.95316 10.1011C5.13546 13.583 2.72786 15.3252 1.64032 17.8698C0.555269 20.4169 0.995288 23.2865 1.87783 29.0281L2.63036 33.9273C3.52039 39.7164 4.09542 43.4483 5.40297 45.9929M26.4539 41.3087C32.3716 40.1613 36.4293 36.5194 38.3369 30.6328C40.497 23.9664 37.5693 15.7077 30.189 13.7955C30.189 13.7955 32.4641 16.5076 30.9941 18.8872C28.1614 23.9864 20.0636 22.2892 16.8135 28.7856C14.9009 32.4151 15.4809 36.7069 18.236 39.384C19.9661 41.0662 23.6112 41.8586 26.4539 41.3087Z" stroke="#8FBCAC" stroke-width="2" stroke-linecap="round" stroke-linejoin="round"/>
</svg>
