<svg width="28" height="26" viewBox="0 0 28 26" fill="none" xmlns="http://www.w3.org/2000/svg">
<g clip-path="url(#clip0_51_121)">
<path d="M12.6641 18.3334L19.3307 13L12.6641 7.66669V11.6667H0.664062V14.3334H12.6641V18.3334Z" fill="black"/>
<path d="M15.332 0.998642C13.7554 0.99427 12.1936 1.30279 10.737 1.90633C9.28046 2.50986 7.95815 3.39642 6.84668 4.51464L8.73201 6.39998C10.4947 4.63731 12.8387 3.66531 15.332 3.66531C17.8253 3.66531 20.1693 4.63731 21.932 6.39998C23.6947 8.16264 24.6667 10.5066 24.6667 13C24.6667 15.4933 23.6947 17.8373 21.932 19.6C20.1693 21.3626 17.8253 22.3346 15.332 22.3346C12.8387 22.3346 10.4947 21.3626 8.73201 19.6L6.84668 21.4853C9.11201 23.752 12.1253 25.0013 15.332 25.0013C18.5387 25.0013 21.552 23.752 23.8173 21.4853C26.084 19.22 27.3333 16.2066 27.3333 13C27.3333 9.79331 26.084 6.77998 23.8173 4.51464C22.7059 3.39642 21.3836 2.50986 19.927 1.90633C18.4705 1.30279 16.9086 0.99427 15.332 0.998642Z" fill="black"/>
</g>
<defs>
<clipPath id="clip0_51_121">
<rect width="28" height="26" fill="white"/>
</clipPath>
</defs>
</svg>
