<svg width="28" height="26" viewBox="0 0 28 26" fill="none" xmlns="http://www.w3.org/2000/svg">
<g clip-path="url(#clip0_51_124)">
<path d="M0.666748 13L7.33341 18.3333V14.3333H19.3334V11.6666H7.33341V7.66663L0.666748 13Z" fill="black"/>
<path d="M15.3347 0.998703C13.7581 0.994331 12.1962 1.30285 10.7397 1.90639C9.28315 2.50993 7.96084 3.39648 6.84937 4.5147L8.7347 6.40004C10.4974 4.63737 12.8414 3.66537 15.3347 3.66537C17.828 3.66537 20.172 4.63737 21.9347 6.40004C23.6974 8.1627 24.6694 10.5067 24.6694 13C24.6694 15.4934 23.6974 17.8374 21.9347 19.6C20.172 21.3627 17.828 22.3347 15.3347 22.3347C12.8414 22.3347 10.4974 21.3627 8.7347 19.6L6.84937 21.4854C9.1147 23.752 12.128 25.0014 15.3347 25.0014C18.5414 25.0014 21.5547 23.752 23.82 21.4854C26.0867 19.22 27.336 16.2067 27.336 13C27.336 9.79337 26.0867 6.78004 23.82 4.5147C22.7086 3.39648 21.3863 2.50993 19.9297 1.90639C18.4732 1.30285 16.9113 0.994331 15.3347 0.998703Z" fill="black"/>
</g>
<defs>
<clipPath id="clip0_51_124">
<rect width="28" height="26" fill="white"/>
</clipPath>
</defs>
</svg>
