<svg width="41" height="32" viewBox="0 0 41 32" fill="none" xmlns="http://www.w3.org/2000/svg">
<g clip-path="url(#clip0_249_1391)">
<path d="M9.23895 31.927C9.24795 31.933 9.25995 31.93 9.26895 31.936C9.33977 31.9754 9.41896 31.9973 9.49995 32C9.54456 31.9999 9.58895 31.9939 9.63195 31.982L20.5 29.016L31.368 31.982C31.411 31.9939 31.4553 31.9999 31.5 32C31.5808 31.9976 31.6598 31.9752 31.73 31.935C31.74 31.93 31.751 31.932 31.76 31.926L40.7599 26.426C40.8529 26.3689 40.9247 26.283 40.9644 26.1814C41.0041 26.0798 41.0096 25.968 40.9799 25.863L35.9959 8.363C35.9756 8.29012 35.9389 8.22283 35.8886 8.16622C35.8384 8.10962 35.7759 8.06518 35.706 8.03628C35.636 8.00738 35.5604 7.99476 35.4849 7.99939C35.4093 8.00402 35.3358 8.02577 35.27 8.063L30.308 10.847C30.1993 10.9156 30.1211 11.0233 30.0897 11.1479C30.0582 11.2725 30.0758 11.4045 30.1389 11.5165C30.2019 11.6284 30.3056 11.7119 30.4284 11.7496C30.5513 11.7873 30.6839 11.7763 30.799 11.719L35.208 9.244L39.915 25.77L31.9 30.669L29.996 15.438C29.9795 15.3063 29.9114 15.1866 29.8067 15.1051C29.702 15.0236 29.5691 14.9871 29.4375 15.0035C29.3058 15.0199 29.186 15.088 29.1045 15.1928C29.023 15.2975 28.9865 15.4303 29.003 15.562L30.91 30.821L21 28.116V25.386C21 25.2534 20.9473 25.1262 20.8535 25.0324C20.7597 24.9387 20.6326 24.886 20.5 24.886C20.3673 24.886 20.2402 24.9387 20.1464 25.0324C20.0526 25.1262 20 25.2534 20 25.386V28.116L10.089 30.821L11.996 15.562C12.0041 15.4968 11.9993 15.4306 11.9819 15.3673C11.9645 15.3039 11.9347 15.2446 11.8944 15.1928C11.854 15.1409 11.8039 15.0975 11.7467 15.065C11.6896 15.0325 11.6267 15.0116 11.5615 15.0035C11.4963 14.9954 11.4301 15.0001 11.3667 15.0176C11.3034 15.035 11.2441 15.0647 11.1922 15.1051C11.1404 15.1454 11.0969 15.1956 11.0645 15.2527C11.032 15.3098 11.0111 15.3728 11.003 15.438L9.09995 30.669L1.08495 25.771L5.79195 9.246L10.201 11.721C10.316 11.7783 10.4486 11.7893 10.5715 11.7516C10.6943 11.7139 10.798 11.6304 10.8611 11.5185C10.9241 11.4065 10.9417 11.2745 10.9102 11.1499C10.8788 11.0253 10.8006 10.9176 10.692 10.849L5.72895 8.064C5.66322 8.02636 5.58973 8.00428 5.51414 7.99945C5.43854 7.99461 5.36284 8.00716 5.29285 8.03612C5.22285 8.06509 5.16042 8.1097 5.11035 8.16653C5.06027 8.22337 5.02387 8.29092 5.00395 8.364L0.0199521 25.864C-0.0101923 25.969 -0.00498694 26.081 0.0347665 26.1827C0.0745199 26.2844 0.146616 26.3703 0.239952 26.427L9.23895 31.927Z" fill="white"/>
<path d="M20.161 23.368C20.2528 23.4527 20.373 23.5 20.4979 23.5006C20.6228 23.5011 20.7435 23.4549 20.836 23.371C21.169 23.068 29 15.882 29 8.5C29 3.733 25.267 0 20.5 0C15.733 0 12 3.733 12 8.5C12 15.754 19.828 23.06 20.161 23.368ZM20.5 1C24.775 1 28 4.224 28 8.5C28 14.597 22.007 20.837 20.503 22.307C19.002 20.82 13 14.498 13 8.5C13 4.224 16.225 1 20.5 1Z" fill="white"/>
<path d="M25 8.5C25 6.019 22.981 4 20.5 4C18.019 4 16 6.019 16 8.5C16 10.981 18.019 13 20.5 13C22.981 13 25 10.981 25 8.5ZM20.5 12C18.57 12 17 10.43 17 8.5C17 6.57 18.57 5 20.5 5C22.43 5 24 6.57 24 8.5C24 10.43 22.43 12 20.5 12Z" fill="white"/>
</g>
<defs>
<clipPath id="clip0_249_1391">
<rect width="41" height="32" fill="white"/>
</clipPath>
</defs>
</svg>
