<svg width="32" height="32" viewBox="0 0 32 32" fill="none" xmlns="http://www.w3.org/2000/svg">
<g clip-path="url(#clip0_340_3261)">
<path fill-rule="evenodd" clip-rule="evenodd" d="M21.6888 11.7334C21.6888 13.2421 21.0894 14.6891 20.0226 15.756C18.9557 16.8229 17.5087 17.4222 15.9999 17.4222C14.4911 17.4222 13.0441 16.8229 11.9773 15.756C10.9104 14.6891 10.311 13.2421 10.311 11.7334C10.311 10.2246 10.9104 8.77757 11.9773 7.7107C13.0441 6.64383 14.4911 6.04446 15.9999 6.04446C17.5087 6.04446 18.9557 6.64383 20.0226 7.7107C21.0894 8.77757 21.6888 10.2246 21.6888 11.7334ZM18.8444 11.7334C18.8444 12.4877 18.5447 13.2112 18.0112 13.7447C17.4778 14.2781 16.7543 14.5778 15.9999 14.5778C15.2455 14.5778 14.522 14.2781 13.9886 13.7447C13.4552 13.2112 13.1555 12.4877 13.1555 11.7334C13.1555 10.979 13.4552 10.2555 13.9886 9.72203C14.522 9.18859 15.2455 8.88891 15.9999 8.88891C16.7543 8.88891 17.4778 9.18859 18.0112 9.72203C18.5447 10.2555 18.8444 10.979 18.8444 11.7334Z" fill="white"/>
<path fill-rule="evenodd" clip-rule="evenodd" d="M15.9999 0.35556C7.35991 0.35556 0.355469 7.36001 0.355469 16C0.355469 24.64 7.35991 31.6444 15.9999 31.6444C24.6399 31.6444 31.6444 24.64 31.6444 16C31.6444 7.36001 24.6399 0.35556 15.9999 0.35556ZM3.19991 16C3.19991 18.9725 4.21396 21.7088 5.91351 23.882C7.10709 22.3145 8.64688 21.0443 10.4126 20.1704C12.1784 19.2965 14.1222 18.8427 16.0924 18.8444C18.037 18.8426 19.9564 19.2847 21.7043 20.1369C23.4523 20.9892 24.9826 22.2292 26.1788 23.7625C27.411 22.1463 28.2407 20.2599 28.5992 18.2593C28.9577 16.2588 28.8347 14.2017 28.2403 12.2581C27.6459 10.3146 26.5972 8.54052 25.181 7.08272C23.7649 5.62493 22.022 4.52532 20.0965 3.87486C18.171 3.22441 16.1182 3.04181 14.1082 3.34219C12.0981 3.64256 10.1884 4.41727 8.53718 5.60221C6.88595 6.78716 5.54062 8.34827 4.61251 10.1564C3.68439 11.9645 3.20017 13.9676 3.19991 16ZM15.9999 28.8C13.0615 28.8044 10.2118 27.7936 7.93307 25.9385C8.8503 24.6254 10.0711 23.5533 11.4917 22.8134C12.9123 22.0735 14.4906 21.6878 16.0924 21.6889C17.6741 21.6876 19.2333 22.0638 20.6405 22.786C22.0477 23.5083 23.2623 24.5559 24.1834 25.8418C21.8869 27.7571 18.9903 28.8042 15.9999 28.8Z" fill="white"/>
</g>
<defs>
<clipPath id="clip0_340_3261">
<rect width="32" height="32" fill="white"/>
</clipPath>
</defs>
</svg>
