<svg width="32" height="32" viewBox="0 0 32 32" fill="none" xmlns="http://www.w3.org/2000/svg">
<path d="M8.38112 5.33333H23.6192C24.4275 5.33333 25.2027 5.65442 25.7742 6.22596C26.3457 6.79749 26.6668 7.57267 26.6668 8.38095V23.619C26.6668 24.4273 26.3457 25.2025 25.7742 25.774C25.2027 26.3456 24.4275 26.6667 23.6192 26.6667H8.38112C7.57284 26.6667 6.79766 26.3456 6.22612 25.774C5.65458 25.2025 5.3335 24.4273 5.3335 23.619V8.38095C5.3335 7.57267 5.65458 6.79749 6.22612 6.22596C6.79766 5.65442 7.57284 5.33333 8.38112 5.33333Z" stroke="black" stroke-width="1.52381" stroke-linecap="round" stroke-linejoin="round"/>
<g clip-path="url(#clip0_775_4767)">
<path d="M11.6318 20.3692L16.001 16L20.3702 20.3692M20.3702 11.6308L16.0002 16L11.6318 11.6308" stroke="black" stroke-linecap="round" stroke-linejoin="round"/>
</g>
<defs>
<clipPath id="clip0_775_4767">
<rect width="10" height="10" fill="white" transform="translate(11 11)"/>
</clipPath>
</defs>
</svg>
