<svg width="25" height="32" viewBox="0 0 25 32" fill="none" xmlns="http://www.w3.org/2000/svg">
<g clip-path="url(#clip0_340_3305)">
<path d="M10.3383 13.0462C10.3383 12.785 10.4421 12.5346 10.6267 12.3499C10.8114 12.1653 11.0618 12.0615 11.323 12.0615H18.2153C18.4764 12.0615 18.7268 12.1653 18.9115 12.3499C19.0961 12.5346 19.1999 12.785 19.1999 13.0462C19.1999 13.3073 19.0961 13.5577 18.9115 13.7424C18.7268 13.927 18.4764 14.0308 18.2153 14.0308H11.323C11.0618 14.0308 10.8114 13.927 10.6267 13.7424C10.4421 13.5577 10.3383 13.3073 10.3383 13.0462ZM10.3383 18.9538C10.3383 18.6927 10.4421 18.4423 10.6267 18.2576C10.8114 18.073 11.0618 17.9692 11.323 17.9692H18.2153C18.4764 17.9692 18.7268 18.073 18.9115 18.2576C19.0961 18.4423 19.1999 18.6927 19.1999 18.9538C19.1999 19.215 19.0961 19.4654 18.9115 19.6501C18.7268 19.8347 18.4764 19.9385 18.2153 19.9385H11.323C11.0618 19.9385 10.8114 19.8347 10.6267 19.6501C10.4421 19.4654 10.3383 19.215 10.3383 18.9538ZM10.3383 24.8615C10.3383 24.6004 10.4421 24.35 10.6267 24.1653C10.8114 23.9807 11.0618 23.8769 11.323 23.8769H18.2153C18.4764 23.8769 18.7268 23.9807 18.9115 24.1653C19.0961 24.35 19.1999 24.6004 19.1999 24.8615C19.1999 25.1227 19.0961 25.3731 18.9115 25.5578C18.7268 25.7424 18.4764 25.8462 18.2153 25.8462H11.323C11.0618 25.8462 10.8114 25.7424 10.6267 25.5578C10.4421 25.3731 10.3383 25.1227 10.3383 24.8615ZM8.36911 13.0462C8.36911 13.4379 8.21351 13.8135 7.93653 14.0905C7.65955 14.3675 7.28389 14.5231 6.89219 14.5231C6.50048 14.5231 6.12482 14.3675 5.84785 14.0905C5.57087 13.8135 5.41526 13.4379 5.41526 13.0462C5.41526 12.6545 5.57087 12.2788 5.84785 12.0018C6.12482 11.7248 6.50048 11.5692 6.89219 11.5692C7.28389 11.5692 7.65955 11.7248 7.93653 12.0018C8.21351 12.2788 8.36911 12.6545 8.36911 13.0462ZM8.36911 18.9538C8.36911 19.3456 8.21351 19.7212 7.93653 19.9982C7.65955 20.2752 7.28389 20.4308 6.89219 20.4308C6.50048 20.4308 6.12482 20.2752 5.84785 19.9982C5.57087 19.7212 5.41526 19.3456 5.41526 18.9538C5.41526 18.5621 5.57087 18.1865 5.84785 17.9095C6.12482 17.6325 6.50048 17.4769 6.89219 17.4769C7.28389 17.4769 7.65955 17.6325 7.93653 17.9095C8.21351 18.1865 8.36911 18.5621 8.36911 18.9538ZM6.89219 26.3385C7.28389 26.3385 7.65955 26.1829 7.93653 25.9059C8.21351 25.6289 8.36911 25.2532 8.36911 24.8615C8.36911 24.4698 8.21351 24.0942 7.93653 23.8172C7.65955 23.5402 7.28389 23.3846 6.89219 23.3846C6.50048 23.3846 6.12482 23.5402 5.84785 23.8172C5.57087 24.0942 5.41526 24.4698 5.41526 24.8615C5.41526 25.2532 5.57087 25.6289 5.84785 25.9059C6.12482 26.1829 6.50048 26.3385 6.89219 26.3385ZM6.56726 2.21539C6.77097 1.63923 7.14835 1.14044 7.64741 0.787749C8.14646 0.435059 8.74262 0.245835 9.35373 0.246155H15.2614C15.8725 0.245835 16.4687 0.435059 16.9677 0.787749C17.4668 1.14044 17.8442 1.63923 18.0479 2.21539H21.1691C21.9525 2.21539 22.7038 2.52659 23.2578 3.08055C23.8117 3.6345 24.123 4.38582 24.123 5.16923V28.8C24.123 29.5834 23.8117 30.3347 23.2578 30.8887C22.7038 31.4426 21.9525 31.7538 21.1691 31.7538H3.44603C2.66262 31.7538 1.9113 31.4426 1.35735 30.8887C0.803395 30.3347 0.492188 29.5834 0.492188 28.8V5.16923C0.492188 4.38582 0.803395 3.6345 1.35735 3.08055C1.9113 2.52659 2.66262 2.21539 3.44603 2.21539H6.56726ZM9.35373 2.21539C9.09259 2.21539 8.84215 2.31912 8.6575 2.50377C8.47285 2.68842 8.36911 2.93887 8.36911 3.2C8.36911 3.46114 8.47285 3.71158 8.6575 3.89623C8.84215 4.08088 9.09259 4.18462 9.35373 4.18462H15.2614C15.5226 4.18462 15.773 4.08088 15.9576 3.89623C16.1423 3.71158 16.246 3.46114 16.246 3.2C16.246 2.93887 16.1423 2.68842 15.9576 2.50377C15.773 2.31912 15.5226 2.21539 15.2614 2.21539H9.35373ZM6.56726 4.18462H3.44603C3.1849 4.18462 2.93446 4.28835 2.74981 4.473C2.56515 4.65766 2.46142 4.9081 2.46142 5.16923V28.8C2.46142 29.0611 2.56515 29.3116 2.74981 29.4962C2.93446 29.6809 3.1849 29.7846 3.44603 29.7846H21.1691C21.4302 29.7846 21.6807 29.6809 21.8653 29.4962C22.05 29.3116 22.1537 29.0611 22.1537 28.8V5.16923C22.1537 4.9081 22.05 4.65766 21.8653 4.473C21.6807 4.28835 21.4302 4.18462 21.1691 4.18462H18.0479C17.8442 4.76077 17.4668 5.25956 16.9677 5.61225C16.4687 5.96494 15.8725 6.15417 15.2614 6.15385H9.35373C8.74262 6.15417 8.14646 5.96494 7.64741 5.61225C7.14835 5.25956 6.77097 4.76077 6.56726 4.18462Z" fill="white"/>
</g>
<defs>
<clipPath id="clip0_340_3305">
<rect width="24.6154" height="32" fill="white"/>
</clipPath>
</defs>
</svg>
