<svg width="32" height="32" viewBox="0 0 32 32" fill="none" xmlns="http://www.w3.org/2000/svg">
<path d="M13.3333 8C13.3333 6.58551 12.7714 5.22896 11.7712 4.22876C10.771 3.22857 9.41445 2.66666 7.99996 2.66666C6.58547 2.66666 5.22892 3.22857 4.22872 4.22876C3.22853 5.22896 2.66663 6.58551 2.66663 8C2.66663 9.41449 3.22853 10.771 4.22872 11.7712C5.22892 12.7714 6.58547 13.3333 7.99996 13.3333C9.41445 13.3333 10.771 12.7714 11.7712 11.7712C12.7714 10.771 13.3333 9.41449 13.3333 8ZM13.3333 24C13.3333 22.5855 12.7714 21.229 11.7712 20.2288C10.771 19.2286 9.41445 18.6667 7.99996 18.6667C6.58547 18.6667 5.22892 19.2286 4.22872 20.2288C3.22853 21.229 2.66663 22.5855 2.66663 24C2.66663 25.4145 3.22853 26.771 4.22872 27.7712C5.22892 28.7714 6.58547 29.3333 7.99996 29.3333C9.41445 29.3333 10.771 28.7714 11.7712 27.7712C12.7714 26.771 13.3333 25.4145 13.3333 24ZM29.3333 8C29.3333 6.58551 28.7714 5.22896 27.7712 4.22876C26.771 3.22857 25.4144 2.66666 24 2.66666C22.5855 2.66666 21.2289 3.22857 20.2287 4.22876C19.2285 5.22896 18.6666 6.58551 18.6666 8C18.6666 9.41449 19.2285 10.771 20.2287 11.7712C21.2289 12.7714 22.5855 13.3333 24 13.3333C25.4144 13.3333 26.771 12.7714 27.7712 11.7712C28.7714 10.771 29.3333 9.41449 29.3333 8ZM29.3333 24C29.3333 22.5855 28.7714 21.229 27.7712 20.2288C26.771 19.2286 25.4144 18.6667 24 18.6667C22.5855 18.6667 21.2289 19.2286 20.2287 20.2288C19.2285 21.229 18.6666 22.5855 18.6666 24C18.6666 25.4145 19.2285 26.771 20.2287 27.7712C21.2289 28.7714 22.5855 29.3333 24 29.3333C25.4144 29.3333 26.771 28.7714 27.7712 27.7712C28.7714 26.771 29.3333 25.4145 29.3333 24Z" stroke="white" stroke-width="2" stroke-linecap="round" stroke-linejoin="round"/>
</svg>
