<svg width="32" height="30" viewBox="0 0 32 30" fill="none" xmlns="http://www.w3.org/2000/svg">
<path fill-rule="evenodd" clip-rule="evenodd" d="M1 28.3333C1 27.8913 1.14367 27.4674 1.3994 27.1548C1.65513 26.8423 2.00198 26.6667 2.36364 26.6667H29.6364C29.998 26.6667 30.3449 26.8423 30.6006 27.1548C30.8563 27.4674 31 27.8913 31 28.3333C31 28.7754 30.8563 29.1993 30.6006 29.5118C30.3449 29.8244 29.998 30 29.6364 30H2.36364C2.00198 30 1.65513 29.8244 1.3994 29.5118C1.14367 29.1993 1 28.7754 1 28.3333ZM1 15C1 14.558 1.14367 14.134 1.3994 13.8215C1.65513 13.5089 2.00198 13.3333 2.36364 13.3333H29.6364C29.998 13.3333 30.3449 13.5089 30.6006 13.8215C30.8563 14.134 31 14.558 31 15C31 15.442 30.8563 15.866 30.6006 16.1785C30.3449 16.4911 29.998 16.6667 29.6364 16.6667H2.36364C2.00198 16.6667 1.65513 16.4911 1.3994 16.1785C1.14367 15.866 1 15.442 1 15ZM1 1.66667C1 1.22464 1.14367 0.800716 1.3994 0.488156C1.65513 0.175595 2.00198 0 2.36364 0H29.6364C29.998 0 30.3449 0.175595 30.6006 0.488156C30.8563 0.800716 31 1.22464 31 1.66667C31 2.10869 30.8563 2.53262 30.6006 2.84518C30.3449 3.15774 29.998 3.33333 29.6364 3.33333H2.36364C2.00198 3.33333 1.65513 3.15774 1.3994 2.84518C1.14367 2.53262 1 2.10869 1 1.66667Z" fill="white"/>
</svg>
