<svg width="94" height="26" viewBox="0 0 94 26" fill="none" xmlns="http://www.w3.org/2000/svg">
<path d="M26.0784 14L30.4884 4.2H32.2804L36.7044 14H34.8004L31.0064 5.166H31.7344L27.9544 14H26.0784ZM28.1084 11.732L28.5984 10.304H33.8904L34.3804 11.732H28.1084ZM37.9508 14V4.2H41.9828C42.8508 4.2 43.5928 4.34 44.2088 4.62C44.8341 4.9 45.3148 5.30133 45.6508 5.824C45.9868 6.34667 46.1548 6.96733 46.1548 7.686C46.1548 8.40467 45.9868 9.02533 45.6508 9.548C45.3148 10.0613 44.8341 10.458 44.2088 10.738C43.5928 11.0087 42.8508 11.144 41.9828 11.144H38.9588L39.7708 10.318V14H37.9508ZM44.3628 14L41.8848 10.444H43.8308L46.3228 14H44.3628ZM39.7708 10.514L38.9588 9.646H41.8988C42.7014 9.646 43.3034 9.47333 43.7048 9.128C44.1154 8.78267 44.3208 8.302 44.3208 7.686C44.3208 7.06067 44.1154 6.58 43.7048 6.244C43.3034 5.908 42.7014 5.74 41.8988 5.74H38.9588L39.7708 4.844V10.514ZM52.727 14.14C51.9803 14.14 51.285 14.0187 50.641 13.776C50.0063 13.524 49.451 13.174 48.975 12.726C48.5083 12.2687 48.1443 11.732 47.883 11.116C47.6217 10.5 47.491 9.828 47.491 9.1C47.491 8.372 47.6217 7.7 47.883 7.084C48.1443 6.468 48.513 5.936 48.989 5.488C49.465 5.03067 50.0203 4.68067 50.655 4.438C51.2897 4.186 51.985 4.06 52.741 4.06C53.5437 4.06 54.2763 4.2 54.939 4.48C55.6017 4.75067 56.1617 5.15667 56.619 5.698L55.443 6.804C55.0883 6.42133 54.6917 6.13667 54.253 5.95C53.8143 5.754 53.3383 5.656 52.825 5.656C52.3117 5.656 51.8403 5.74 51.411 5.908C50.991 6.076 50.6223 6.314 50.305 6.622C49.997 6.93 49.7543 7.294 49.577 7.714C49.409 8.134 49.325 8.596 49.325 9.1C49.325 9.604 49.409 10.066 49.577 10.486C49.7543 10.906 49.997 11.27 50.305 11.578C50.6223 11.886 50.991 12.124 51.411 12.292C51.8403 12.46 52.3117 12.544 52.825 12.544C53.3383 12.544 53.8143 12.4507 54.253 12.264C54.6917 12.068 55.0883 11.774 55.443 11.382L56.619 12.502C56.1617 13.034 55.6017 13.44 54.939 13.72C54.2763 14 53.539 14.14 52.727 14.14ZM56.7718 14L61.1818 4.2H62.9738L67.3978 14H65.4938L61.6998 5.166H62.4278L58.6478 14H56.7718ZM58.8018 11.732L59.2918 10.304H64.5838L65.0738 11.732H58.8018ZM68.6441 14V4.2H72.9281C73.9921 4.2 74.9255 4.40533 75.7281 4.816C76.5308 5.22667 77.1561 5.796 77.6041 6.524C78.0521 7.252 78.2761 8.11067 78.2761 9.1C78.2761 10.08 78.0521 10.9387 77.6041 11.676C77.1561 12.404 76.5308 12.9733 75.7281 13.384C74.9255 13.7947 73.9921 14 72.9281 14H68.6441ZM70.4641 12.46H72.8441C73.5815 12.46 74.2161 12.32 74.7481 12.04C75.2895 11.76 75.7048 11.368 75.9941 10.864C76.2928 10.36 76.4421 9.772 76.4421 9.1C76.4421 8.41867 76.2928 7.83067 75.9941 7.336C75.7048 6.832 75.2895 6.44 74.7481 6.16C74.2161 5.88 73.5815 5.74 72.8441 5.74H70.4641V12.46ZM80.2105 14V4.2H82.0305V14H80.2105ZM83.2952 14L87.7052 4.2H89.4972L93.9212 14H92.0172L88.2232 5.166H88.9512L85.1712 14H83.2952ZM85.3252 11.732L85.8152 10.304H91.1072L91.5972 11.732H85.3252ZM42.9648 20.6719L42.8789 20.3203L45.4805 20.1406C45.6107 20.1458 45.7201 20.1953 45.8086 20.2891C45.9023 20.3776 45.9492 20.474 45.9492 20.5781C45.9492 20.6458 45.9232 20.7057 45.8711 20.7578C45.819 20.8099 45.7409 20.8411 45.6367 20.8516L42.9648 20.6719ZM51.6602 22.5312L51.6758 23.0078C51.3737 23.0182 51.1393 23.0234 50.9727 23.0234C50.7435 23.0234 50.4023 23.0182 49.9492 23.0078C49.5013 22.9974 49.1732 22.9922 48.9648 22.9922C48.8086 22.9922 48.6107 22.9974 48.3711 23.0078L48.418 22.5859C48.4336 22.4401 48.6107 22.0781 48.9492 21.5C49.293 20.9167 49.7122 20.2318 50.207 19.4453C50.7018 18.6589 51.0091 18.1615 51.1289 17.9531C50.9414 17.9427 50.6523 17.9323 50.2617 17.9219C49.8763 17.9115 49.5221 17.8984 49.1992 17.8828C48.8815 17.8672 48.5951 17.849 48.3398 17.8281V17.4062H48.5742C48.6055 17.4062 49.6862 17.388 51.8164 17.3516V17.9688L49.3711 22.4297C49.6003 22.4453 49.9831 22.4635 50.5195 22.4844C51.056 22.5052 51.4362 22.5208 51.6602 22.5312ZM51.8086 21.3359C51.8086 21.1276 51.8294 20.8958 51.8711 20.6406C51.918 20.3854 51.9857 20.1172 52.0742 19.8359C52.1628 19.5547 52.2956 19.3203 52.4727 19.1328C52.6497 18.9453 52.8555 18.8516 53.0898 18.8516C53.5898 18.8516 53.9909 19.0781 54.293 19.5312C54.5951 19.9792 54.7461 20.4792 54.7461 21.0312C54.7461 21.2656 54.7201 21.5 54.668 21.7344C54.6211 21.9635 54.5456 22.1901 54.4414 22.4141C54.3372 22.638 54.1862 22.8255 53.9883 22.9766C53.7956 23.1224 53.569 23.2057 53.3086 23.2266C52.8294 23.1641 52.4596 22.9609 52.1992 22.6172C51.9388 22.2682 51.8086 21.8411 51.8086 21.3359ZM53.1367 19.2578C52.9544 19.2786 52.8008 19.4453 52.6758 19.7578C52.5508 20.0703 52.4701 20.375 52.4336 20.6719C52.3971 20.9635 52.3789 21.2214 52.3789 21.4453C52.3789 21.737 52.4674 22.0078 52.6445 22.2578C52.8268 22.5026 53.0299 22.625 53.2539 22.625C53.4154 22.625 53.5612 22.5625 53.6914 22.4375C53.8216 22.3125 53.9232 22.1589 53.9961 21.9766C54.0742 21.7891 54.1315 21.6016 54.168 21.4141C54.2096 21.2266 54.2305 21.0599 54.2305 20.9141C54.2305 20.487 54.1341 20.1146 53.9414 19.7969C53.7487 19.4792 53.4805 19.2995 53.1367 19.2578ZM55.3789 21.3359C55.3789 21.1276 55.3997 20.8958 55.4414 20.6406C55.4883 20.3854 55.556 20.1172 55.6445 19.8359C55.7331 19.5547 55.8659 19.3203 56.043 19.1328C56.2201 18.9453 56.4258 18.8516 56.6602 18.8516C57.1602 18.8516 57.5612 19.0781 57.8633 19.5312C58.1654 19.9792 58.3164 20.4792 58.3164 21.0312C58.3164 21.2656 58.2904 21.5 58.2383 21.7344C58.1914 21.9635 58.1159 22.1901 58.0117 22.4141C57.9076 22.638 57.7565 22.8255 57.5586 22.9766C57.3659 23.1224 57.1393 23.2057 56.8789 23.2266C56.3997 23.1641 56.0299 22.9609 55.7695 22.6172C55.5091 22.2682 55.3789 21.8411 55.3789 21.3359ZM56.707 19.2578C56.5247 19.2786 56.3711 19.4453 56.2461 19.7578C56.1211 20.0703 56.0404 20.375 56.0039 20.6719C55.9674 20.9635 55.9492 21.2214 55.9492 21.4453C55.9492 21.737 56.0378 22.0078 56.2148 22.2578C56.3971 22.5026 56.6003 22.625 56.8242 22.625C56.9857 22.625 57.1315 22.5625 57.2617 22.4375C57.3919 22.3125 57.4935 22.1589 57.5664 21.9766C57.6445 21.7891 57.7018 21.6016 57.7383 21.4141C57.7799 21.2266 57.8008 21.0599 57.8008 20.9141C57.8008 20.487 57.7044 20.1146 57.5117 19.7969C57.319 19.4792 57.0508 19.2995 56.707 19.2578ZM59.0742 17.3906L59.4258 17.2969C59.4258 17.4635 59.4284 17.5573 59.4336 17.5781C59.7305 17.3802 60.1471 17.2812 60.6836 17.2812C61.2617 17.2812 61.694 17.4635 61.9805 17.8281C62.2669 18.1875 62.4102 18.6927 62.4102 19.3438C62.4102 19.9219 62.2695 20.401 61.9883 20.7812C61.707 21.1615 61.2826 21.3516 60.7148 21.3516C60.6211 21.3516 60.2461 21.3203 59.5898 21.2578C59.6003 21.638 59.6211 22.2292 59.6523 23.0312C59.6055 23.1927 59.5143 23.2734 59.3789 23.2734C59.2852 23.2734 59.194 23.2344 59.1055 23.1562C59.0221 23.0833 58.9701 22.9922 58.9492 22.8828C58.9648 22.4453 58.9805 21.5938 58.9961 20.3281C59.0169 19.0625 59.043 18.0833 59.0742 17.3906ZM59.5039 18.1016L59.5664 20.5391C59.8529 20.6953 60.1836 20.7734 60.5586 20.7734C60.918 20.7734 61.2227 20.638 61.4727 20.3672C61.7227 20.0964 61.8477 19.7656 61.8477 19.375C61.8477 18.9531 61.7174 18.5729 61.457 18.2344C61.1966 17.8958 60.8711 17.7266 60.4805 17.7266C60.1628 17.7266 59.8372 17.8516 59.5039 18.1016ZM63.0195 19.625L62.8633 19.2266C62.9987 19.0911 63.1706 18.9844 63.3789 18.9062C63.5872 18.8229 63.793 18.7812 63.9961 18.7812C64.8763 18.7812 65.3164 19.5417 65.3164 21.0625C65.3164 21.2708 65.3034 21.5781 65.2773 21.9844C65.2565 22.3906 65.2461 22.6953 65.2461 22.8984C65.2044 23.0599 65.1237 23.1406 65.0039 23.1406C64.9102 23.1406 64.8242 23.0938 64.7461 23C64.668 22.9062 64.6289 22.8021 64.6289 22.6875C64.6289 22.651 64.6315 22.625 64.6367 22.6094C64.3138 22.9219 63.9701 23.0781 63.6055 23.0781C63.3294 23.0781 63.0872 22.9792 62.8789 22.7812C62.6758 22.5781 62.5742 22.3333 62.5742 22.0469C62.5742 21.5625 62.7617 21.125 63.1367 20.7344C63.5169 20.3438 63.9466 20.1484 64.4258 20.1484C64.4466 20.1484 64.4674 20.151 64.4883 20.1562C64.5091 20.1562 64.5326 20.1589 64.5586 20.1641C64.5898 20.1693 64.6133 20.1719 64.6289 20.1719C64.5872 19.5625 64.3451 19.2578 63.9023 19.2578C63.6419 19.2578 63.3477 19.3802 63.0195 19.625ZM64.6523 22.0703C64.6628 21.7057 64.668 21.4297 64.668 21.2422C64.668 21.0859 64.6628 20.8672 64.6523 20.5859H64.5898C64.2201 20.5911 63.8815 20.7292 63.5742 21C63.2721 21.2708 63.1211 21.599 63.1211 21.9844C63.1211 22.151 63.1706 22.2839 63.2695 22.3828C63.3737 22.4818 63.4987 22.5312 63.6445 22.5312C63.8737 22.5312 64.2096 22.3776 64.6523 22.0703ZM68.5273 20.0234L68.1836 20C68.0742 19.7083 67.8893 19.5625 67.6289 19.5625C67.5143 19.5625 67.3919 19.5885 67.2617 19.6406C67.1367 19.6927 67.0326 19.7474 66.9492 19.8047C66.8659 19.8568 66.7565 19.9349 66.6211 20.0391C66.6211 20.112 66.6185 20.349 66.6133 20.75C66.6133 21.151 66.6159 21.5964 66.6211 22.0859C66.6315 22.5755 66.6419 22.8385 66.6523 22.875C66.6055 23.0312 66.5143 23.1094 66.3789 23.1094C66.2852 23.1094 66.194 23.0729 66.1055 23C66.0221 22.9219 65.9701 22.8281 65.9492 22.7188C66.0482 21.0469 66.1367 19.7839 66.2148 18.9297L66.5664 19.0078L66.5898 19.5312C66.9544 19.2292 67.2669 19.0781 67.5273 19.0781C67.8138 19.0781 68.0534 19.1432 68.2461 19.2734C68.444 19.4036 68.543 19.5938 68.543 19.8438C68.543 19.9219 68.5378 19.9818 68.5273 20.0234ZM71.4883 19.125L71.4492 19.4609C71.2305 19.4297 71.043 19.4141 70.8867 19.4141C70.5273 19.4141 70.2305 19.5234 69.9961 19.7422C69.7617 19.9557 69.6003 20.2109 69.5117 20.5078C69.4284 20.7995 69.3867 21.125 69.3867 21.4844C69.3867 21.651 69.3971 21.7995 69.418 21.9297C69.4388 22.0599 69.4753 22.1875 69.5273 22.3125C69.5846 22.4375 69.6706 22.5365 69.7852 22.6094C69.9049 22.6771 70.0508 22.7109 70.2227 22.7109C70.4518 22.7109 70.7435 22.6667 71.0977 22.5781C71.207 22.5365 71.293 22.5156 71.3555 22.5156C71.4805 22.5156 71.556 22.6615 71.582 22.9531C71.1237 23.099 70.6992 23.1719 70.3086 23.1719C69.7409 23.1719 69.3555 23.0339 69.1523 22.7578C68.9544 22.4766 68.8555 22.0234 68.8555 21.3984C68.8555 21.0339 68.8789 20.7161 68.9258 20.4453C68.9779 20.1693 69.0664 19.9141 69.1914 19.6797C69.3164 19.4401 69.4961 19.2578 69.7305 19.1328C69.9701 19.0078 70.2617 18.9453 70.6055 18.9453C70.9909 18.9453 71.2852 19.0052 71.4883 19.125ZM74.1367 20.6719L74.0508 20.3203L76.6523 20.1406C76.7826 20.1458 76.8919 20.1953 76.9805 20.2891C77.0742 20.3776 77.1211 20.474 77.1211 20.5781C77.1211 20.6458 77.0951 20.7057 77.043 20.7578C76.9909 20.8099 76.9128 20.8411 76.8086 20.8516L74.1367 20.6719Z" fill="white"/>
<path d="M7.46165 8.44555C7.8272 9.91111 2.64332 14.2728 1.21498 10.7222C0.386649 8.665 -0.336685 4.35222 0.485538 4.14722C1.30776 3.94277 7.09665 6.97944 7.46165 8.44555Z" fill="white"/>
<path d="M6.35402 8.75279C6.88736 9.60723 5.3368 11.2867 4.48291 11.8206C3.62847 12.3545 2.87236 11.5139 2.03069 9.36835C1.66291 8.43001 1.10513 5.88501 1.41791 5.68946C1.73013 5.49446 5.82013 7.89834 6.35402 8.75279Z" fill="white"/>
<path d="M12.5315 8.44555C12.1665 9.91166 17.3499 14.2728 18.7788 10.7222C19.6065 8.665 20.3299 4.35222 19.5076 4.14722C18.6854 3.94277 12.8971 6.97944 12.5315 8.44555Z" fill="white"/>
<path d="M13.6399 8.75278C13.1065 9.60723 14.6571 11.2867 15.511 11.8206C16.3649 12.3545 17.121 11.5139 17.9626 9.36834C18.3304 8.43056 18.8882 5.88556 18.576 5.69001C18.2632 5.49445 14.1738 7.89834 13.6399 8.75278Z" fill="white"/>
<path d="M17.9704 17.9511C17.9704 17.6989 17.8659 17.345 17.7443 17.0139C18.0693 17.0295 18.5882 17.12 19.2832 17.4678C19.2791 17.2029 19.2278 16.9408 19.1315 16.6939C19.1543 16.705 19.1732 16.7128 19.1959 16.7245C18.5832 14.8856 17.3576 13.6595 17.3576 13.6595H18.5832C17.2882 11.0689 15.8248 9.20668 14.0971 8.3489C13.3248 7.8639 12.0482 7.60557 10.0009 7.60501H9.99928C7.94651 7.60501 6.66817 7.86501 5.8965 8.35279C4.17206 9.21223 2.71095 11.0728 1.41817 13.6595H2.64428C2.64428 13.6595 1.41817 14.885 0.804838 16.7245C0.821505 16.7161 0.835394 16.7106 0.851505 16.7022C0.73228 16.9388 0.678205 17.2028 0.694838 17.4672C1.3965 17.1161 1.92651 17.0272 2.25762 17.0128C2.15262 17.2978 2.06706 17.5928 2.04317 17.8322C1.96449 18.0726 1.9389 18.3271 1.96817 18.5783C3.74984 17.7689 4.58317 17.8845 5.55539 18.3706C6.22928 20.3833 7.89206 21.8889 10.0004 21.8889C12.1076 21.8889 13.7482 20.3367 14.4215 18.3245C15.2315 17.63 16.4815 17.8383 17.9859 18.5556C18.0186 18.3538 18.0118 18.1476 17.9659 17.9483L17.9704 17.9511Z" fill="white"/>
<path d="M17.3571 16.1117C17.3604 16.1117 17.9727 16.1133 19.1954 16.7244C18.5016 15.1472 15.0149 14.4633 13.6782 14.8961C13.0277 15.9817 12.9666 17.6755 11.7988 18.575C10.8316 19.37 9.18044 19.385 8.19933 18.575C6.89656 17.5061 6.77767 15.3455 6.32044 14.8961C4.98322 14.4622 1.49767 15.1483 0.803223 16.7244C2.026 16.1128 2.63878 16.1117 2.64156 16.1117C2.64156 16.1122 2.02878 17.3383 2.02878 17.9511L2.02933 17.9505V17.9511C3.36156 17.0772 4.87156 16.6894 6.15656 17.7C7.08211 22.1005 12.986 21.8917 13.8416 17.7C15.1271 16.69 16.636 17.0767 17.9688 17.9511C17.9699 17.3383 17.3577 16.1117 17.3571 16.1117Z" fill="white"/>
<path d="M6.11133 12.4444C6.11133 12.4444 6.11133 11.6111 6.94466 11.6111C7.77799 11.6111 7.77799 12.4444 7.77799 12.4444V13.2778C7.77799 13.2778 7.77799 14.1111 6.94466 14.1111C6.11133 14.1111 6.11133 13.2778 6.11133 13.2778V12.4444ZM12.2224 12.4444C12.2224 12.4444 12.2224 11.6111 13.0558 11.6111C13.8891 11.6111 13.8891 12.4444 13.8891 12.4444V13.2778C13.8891 13.2778 13.8891 14.1111 13.0558 14.1111C12.2224 14.1111 12.2224 13.2778 12.2224 13.2778V12.4444ZM8.29966 18.4489C7.73244 18.5644 9.43355 20.6533 10.0008 20.6533C10.5674 20.6533 12.2686 18.5644 11.7019 18.4489C11.1347 18.3333 8.86688 18.3333 8.29966 18.4489Z" fill="white"/>
</svg>
