<svg width="117" height="72" viewBox="0 0 117 72" fill="none" xmlns="http://www.w3.org/2000/svg">
<g clip-path="url(#clip0_21_1345)">
<path d="M54.4386 8.71289C55.0235 11.0578 46.7293 18.0364 44.4439 12.3556C43.1186 9.064 41.9613 2.16356 43.2768 1.83556C44.5924 1.50844 53.8546 6.36711 54.4386 8.71289Z" fill="white"/>
<path d="M52.6663 9.20444C53.5196 10.5716 51.0387 13.2587 49.6725 14.1129C48.3054 14.9671 47.0956 13.6222 45.7489 10.1893C45.1605 8.688 44.268 4.616 44.7685 4.30311C45.268 3.99111 51.812 7.83733 52.6663 9.20444Z" fill="white"/>
<path d="M62.5506 8.71289C61.9666 11.0587 70.2599 18.0364 72.5462 12.3556C73.8706 9.064 75.0279 2.16356 73.7124 1.83556C72.3968 1.50844 63.1355 6.36711 62.5506 8.71289Z" fill="white"/>
<path d="M64.324 9.20444C63.4706 10.5716 65.9515 13.2587 67.3178 14.1129C68.684 14.9671 69.8938 13.6222 71.2404 10.1893C71.8289 8.68889 72.7213 4.61689 72.2218 4.304C71.7213 3.99111 65.1782 7.83733 64.324 9.20444Z" fill="white"/>
<path d="M71.2529 23.9218C71.2529 23.5182 71.0858 22.952 70.8911 22.4222C71.4111 22.4471 72.2413 22.592 73.3533 23.1484C73.3469 22.7245 73.2647 22.3052 73.1107 21.9102C73.1471 21.928 73.1773 21.9404 73.2138 21.9591C72.2333 19.0169 70.2725 17.0551 70.2725 17.0551H72.2333C70.1613 12.9102 67.82 9.93067 65.0556 8.55822C63.82 7.78222 61.7773 7.36889 58.5018 7.368H58.4991C55.2147 7.368 53.1693 7.784 51.9347 8.56445C49.1756 9.93956 46.8378 12.9164 44.7693 17.0551H46.7311C46.7311 17.0551 44.7693 19.016 43.788 21.9591C43.8147 21.9458 43.8369 21.9369 43.8627 21.9236C43.6719 22.3021 43.5854 22.7245 43.612 23.1476C44.7347 22.5858 45.5827 22.4436 46.1125 22.4204C45.9445 22.8764 45.8076 23.3484 45.7693 23.7316C45.6434 24.1161 45.6025 24.5234 45.6493 24.9253C48.5 23.6302 49.8333 23.8151 51.3889 24.5929C52.4671 27.8133 55.1276 30.2222 58.5009 30.2222C61.8725 30.2222 64.4973 27.7387 65.5747 24.5191C66.8707 23.408 68.8707 23.7413 71.2778 24.8889C71.3301 24.566 71.3192 24.2361 71.2458 23.9173L71.2529 23.9218Z" fill="white"/>
<path d="M70.2715 20.9787C70.2768 20.9787 71.2564 20.9813 73.2128 21.9591C72.1026 19.4356 66.5239 18.3413 64.3853 19.0338C63.3444 20.7707 63.2466 23.4809 61.3782 24.92C59.8306 26.192 57.1888 26.216 55.6191 24.92C53.5346 23.2098 53.3444 19.7529 52.6128 19.0338C50.4733 18.3396 44.8964 19.4373 43.7853 21.9591C45.7417 20.9804 46.7222 20.9787 46.7266 20.9787C46.7266 20.9796 45.7462 22.9413 45.7462 23.9218L45.7471 23.9209V23.9218C47.8786 22.5236 50.2946 21.9031 52.3506 23.52C53.8315 30.5609 63.2777 30.2267 64.6466 23.52C66.7035 21.904 69.1177 22.5227 71.2502 23.9218C71.2519 22.9413 70.2724 20.9787 70.2715 20.9787Z" fill="white"/>
<path d="M52.2778 15.1111C52.2778 15.1111 52.2778 13.7778 53.6112 13.7778C54.9445 13.7778 54.9445 15.1111 54.9445 15.1111V16.4444C54.9445 16.4444 54.9445 17.7778 53.6112 17.7778C52.2778 17.7778 52.2778 16.4444 52.2778 16.4444V15.1111ZM62.0556 15.1111C62.0556 15.1111 62.0556 13.7778 63.3889 13.7778C64.7223 13.7778 64.7223 15.1111 64.7223 15.1111V16.4444C64.7223 16.4444 64.7223 17.7778 63.3889 17.7778C62.0556 17.7778 62.0556 16.4444 62.0556 16.4444V15.1111ZM55.7792 24.7182C54.8716 24.9031 57.5934 28.2453 58.5009 28.2453C59.4076 28.2453 62.1294 24.9031 61.2227 24.7182C60.3152 24.5333 56.6867 24.5333 55.7792 24.7182Z" fill="white"/>
</g>
<path d="M0.34875 55L7.90875 38.2H10.9808L18.5648 55H15.3008L8.79675 39.856H10.0448L3.56475 55H0.34875ZM3.82875 51.112L4.66875 48.664H13.7408L14.5807 51.112H3.82875ZM20.7013 55V38.2H27.6133C29.1013 38.2 30.3733 38.44 31.4293 38.92C32.5013 39.4 33.3253 40.088 33.9013 40.984C34.4773 41.88 34.7653 42.944 34.7653 44.176C34.7653 45.408 34.4773 46.472 33.9013 47.368C33.3253 48.248 32.5013 48.928 31.4293 49.408C30.3733 49.872 29.1013 50.104 27.6133 50.104H22.4293L23.8213 48.688V55H20.7013ZM31.6933 55L27.4453 48.904H30.7813L35.0533 55H31.6933ZM23.8213 49.024L22.4293 47.536H27.4693C28.8453 47.536 29.8773 47.24 30.5653 46.648C31.2693 46.056 31.6213 45.232 31.6213 44.176C31.6213 43.104 31.2693 42.28 30.5653 41.704C29.8773 41.128 28.8453 40.84 27.4693 40.84H22.4293L23.8213 39.304V49.024ZM46.032 55.24C44.752 55.24 43.56 55.032 42.456 54.616C41.368 54.184 40.416 53.584 39.6 52.816C38.8 52.032 38.176 51.112 37.728 50.056C37.28 49 37.056 47.848 37.056 46.6C37.056 45.352 37.28 44.2 37.728 43.144C38.176 42.088 38.808 41.176 39.624 40.408C40.44 39.624 41.392 39.024 42.48 38.608C43.568 38.176 44.76 37.96 46.056 37.96C47.432 37.96 48.688 38.2 49.824 38.68C50.96 39.144 51.92 39.84 52.704 40.768L50.688 42.664C50.08 42.008 49.4 41.52 48.648 41.2C47.896 40.864 47.08 40.696 46.2 40.696C45.32 40.696 44.512 40.84 43.776 41.128C43.056 41.416 42.424 41.824 41.88 42.352C41.352 42.88 40.936 43.504 40.632 44.224C40.344 44.944 40.2 45.736 40.2 46.6C40.2 47.464 40.344 48.256 40.632 48.976C40.936 49.696 41.352 50.32 41.88 50.848C42.424 51.376 43.056 51.784 43.776 52.072C44.512 52.36 45.32 52.504 46.2 52.504C47.08 52.504 47.896 52.344 48.648 52.024C49.4 51.688 50.08 51.184 50.688 50.512L52.704 52.432C51.92 53.344 50.96 54.04 49.824 54.52C48.688 55 47.424 55.24 46.032 55.24ZM52.9659 55L60.5259 38.2H63.5979L71.1819 55H67.9179L61.4139 39.856H62.6619L56.1819 55H52.9659ZM56.4459 51.112L57.2859 48.664H66.3579L67.1979 51.112H56.4459ZM73.3185 55V38.2H80.6625C82.4865 38.2 84.0865 38.552 85.4625 39.256C86.8385 39.96 87.9105 40.936 88.6785 42.184C89.4465 43.432 89.8305 44.904 89.8305 46.6C89.8305 48.28 89.4465 49.752 88.6785 51.016C87.9105 52.264 86.8385 53.24 85.4625 53.944C84.0865 54.648 82.4865 55 80.6625 55H73.3185ZM76.4385 52.36H80.5185C81.7825 52.36 82.8705 52.12 83.7825 51.64C84.7105 51.16 85.4225 50.488 85.9185 49.624C86.4305 48.76 86.6865 47.752 86.6865 46.6C86.6865 45.432 86.4305 44.424 85.9185 43.576C85.4225 42.712 84.7105 42.04 83.7825 41.56C82.8705 41.08 81.7825 40.84 80.5185 40.84H76.4385V52.36ZM93.1466 55V38.2H96.2666V55H93.1466ZM98.4347 55L105.995 38.2H109.067L116.651 55H113.387L106.883 39.856H108.131L101.651 55H98.4347ZM101.915 51.112L102.755 48.664H111.827L112.667 51.112H101.915ZM32.9473 64.5078L32.8184 63.9805L36.7207 63.7109C36.916 63.7188 37.0801 63.793 37.2129 63.9336C37.3535 64.0664 37.4238 64.2109 37.4238 64.3672C37.4238 64.4688 37.3848 64.5586 37.3066 64.6367C37.2285 64.7148 37.1113 64.7617 36.9551 64.7773L32.9473 64.5078ZM45.9902 67.2969L46.0137 68.0117C45.5605 68.0273 45.209 68.0352 44.959 68.0352C44.6152 68.0352 44.1035 68.0273 43.4238 68.0117C42.752 67.9961 42.2598 67.9883 41.9473 67.9883C41.7129 67.9883 41.416 67.9961 41.0566 68.0117L41.127 67.3789C41.1504 67.1602 41.416 66.6172 41.9238 65.75C42.4395 64.875 43.0684 63.8477 43.8105 62.668C44.5527 61.4883 45.0137 60.7422 45.1934 60.4297C44.9121 60.4141 44.4785 60.3984 43.8926 60.3828C43.3145 60.3672 42.7832 60.3477 42.2988 60.3242C41.8223 60.3008 41.3926 60.2734 41.0098 60.2422V59.6094H41.3613C41.4082 59.6094 43.0293 59.582 46.2246 59.5273V60.4531L42.5566 67.1445C42.9004 67.168 43.4746 67.1953 44.2793 67.2266C45.084 67.2578 45.6543 67.2812 45.9902 67.2969ZM46.2129 65.5039C46.2129 65.1914 46.2441 64.8438 46.3066 64.4609C46.377 64.0781 46.4785 63.6758 46.6113 63.2539C46.7441 62.832 46.9434 62.4805 47.209 62.1992C47.4746 61.918 47.7832 61.7773 48.1348 61.7773C48.8848 61.7773 49.4863 62.1172 49.9395 62.7969C50.3926 63.4688 50.6191 64.2188 50.6191 65.0469C50.6191 65.3984 50.5801 65.75 50.502 66.1016C50.4316 66.4453 50.3184 66.7852 50.1621 67.1211C50.0059 67.457 49.7793 67.7383 49.4824 67.9648C49.1934 68.1836 48.8535 68.3086 48.4629 68.3398C47.7441 68.2461 47.1895 67.9414 46.7988 67.4258C46.4082 66.9023 46.2129 66.2617 46.2129 65.5039ZM48.2051 62.3867C47.9316 62.418 47.7012 62.668 47.5137 63.1367C47.3262 63.6055 47.2051 64.0625 47.1504 64.5078C47.0957 64.9453 47.0684 65.332 47.0684 65.668C47.0684 66.1055 47.2012 66.5117 47.4668 66.8867C47.7402 67.2539 48.0449 67.4375 48.3809 67.4375C48.623 67.4375 48.8418 67.3438 49.0371 67.1562C49.2324 66.9688 49.3848 66.7383 49.4941 66.4648C49.6113 66.1836 49.6973 65.9023 49.752 65.6211C49.8145 65.3398 49.8457 65.0898 49.8457 64.8711C49.8457 64.2305 49.7012 63.6719 49.4121 63.1953C49.123 62.7188 48.7207 62.4492 48.2051 62.3867ZM51.5684 65.5039C51.5684 65.1914 51.5996 64.8438 51.6621 64.4609C51.7324 64.0781 51.834 63.6758 51.9668 63.2539C52.0996 62.832 52.2988 62.4805 52.5645 62.1992C52.8301 61.918 53.1387 61.7773 53.4902 61.7773C54.2402 61.7773 54.8418 62.1172 55.2949 62.7969C55.748 63.4688 55.9746 64.2188 55.9746 65.0469C55.9746 65.3984 55.9355 65.75 55.8574 66.1016C55.7871 66.4453 55.6738 66.7852 55.5176 67.1211C55.3613 67.457 55.1348 67.7383 54.8379 67.9648C54.5488 68.1836 54.209 68.3086 53.8184 68.3398C53.0996 68.2461 52.5449 67.9414 52.1543 67.4258C51.7637 66.9023 51.5684 66.2617 51.5684 65.5039ZM53.5605 62.3867C53.2871 62.418 53.0566 62.668 52.8691 63.1367C52.6816 63.6055 52.5605 64.0625 52.5059 64.5078C52.4512 64.9453 52.4238 65.332 52.4238 65.668C52.4238 66.1055 52.5566 66.5117 52.8223 66.8867C53.0957 67.2539 53.4004 67.4375 53.7363 67.4375C53.9785 67.4375 54.1973 67.3438 54.3926 67.1562C54.5879 66.9688 54.7402 66.7383 54.8496 66.4648C54.9668 66.1836 55.0527 65.9023 55.1074 65.6211C55.1699 65.3398 55.2012 65.0898 55.2012 64.8711C55.2012 64.2305 55.0566 63.6719 54.7676 63.1953C54.4785 62.7188 54.0762 62.4492 53.5605 62.3867ZM57.1113 59.5859L57.6387 59.4453C57.6387 59.6953 57.6426 59.8359 57.6504 59.8672C58.0957 59.5703 58.7207 59.4219 59.5254 59.4219C60.3926 59.4219 61.041 59.6953 61.4707 60.2422C61.9004 60.7812 62.1152 61.5391 62.1152 62.5156C62.1152 63.3828 61.9043 64.1016 61.4824 64.6719C61.0605 65.2422 60.4238 65.5273 59.5723 65.5273C59.4316 65.5273 58.8691 65.4805 57.8848 65.3867C57.9004 65.957 57.9316 66.8438 57.9785 68.0469C57.9082 68.2891 57.7715 68.4102 57.5684 68.4102C57.4277 68.4102 57.291 68.3516 57.1582 68.2344C57.0332 68.125 56.9551 67.9883 56.9238 67.8242C56.9473 67.168 56.9707 65.8906 56.9941 63.9922C57.0254 62.0938 57.0645 60.625 57.1113 59.5859ZM57.7559 60.6523L57.8496 64.3086C58.2793 64.543 58.7754 64.6602 59.3379 64.6602C59.877 64.6602 60.334 64.457 60.709 64.0508C61.084 63.6445 61.2715 63.1484 61.2715 62.5625C61.2715 61.9297 61.0762 61.3594 60.6855 60.8516C60.2949 60.3438 59.8066 60.0898 59.2207 60.0898C58.7441 60.0898 58.2559 60.2773 57.7559 60.6523ZM63.0293 62.9375L62.7949 62.3398C62.998 62.1367 63.2559 61.9766 63.5684 61.8594C63.8809 61.7344 64.1895 61.6719 64.4941 61.6719C65.8145 61.6719 66.4746 62.8125 66.4746 65.0938C66.4746 65.4062 66.4551 65.8672 66.416 66.4766C66.3848 67.0859 66.3691 67.543 66.3691 67.8477C66.3066 68.0898 66.1855 68.2109 66.0059 68.2109C65.8652 68.2109 65.7363 68.1406 65.6191 68C65.502 67.8594 65.4434 67.7031 65.4434 67.5312C65.4434 67.4766 65.4473 67.4375 65.4551 67.4141C64.9707 67.8828 64.4551 68.1172 63.9082 68.1172C63.4941 68.1172 63.1309 67.9688 62.8184 67.6719C62.5137 67.3672 62.3613 67 62.3613 66.5703C62.3613 65.8438 62.6426 65.1875 63.2051 64.6016C63.7754 64.0156 64.4199 63.7227 65.1387 63.7227C65.1699 63.7227 65.2012 63.7266 65.2324 63.7344C65.2637 63.7344 65.2988 63.7383 65.3379 63.7461C65.3848 63.7539 65.4199 63.7578 65.4434 63.7578C65.3809 62.8438 65.0176 62.3867 64.3535 62.3867C63.9629 62.3867 63.5215 62.5703 63.0293 62.9375ZM65.4785 66.6055C65.4941 66.0586 65.502 65.6445 65.502 65.3633C65.502 65.1289 65.4941 64.8008 65.4785 64.3789H65.3848C64.8301 64.3867 64.3223 64.5938 63.8613 65C63.4082 65.4062 63.1816 65.8984 63.1816 66.4766C63.1816 66.7266 63.2559 66.9258 63.4043 67.0742C63.5605 67.2227 63.748 67.2969 63.9668 67.2969C64.3105 67.2969 64.8145 67.0664 65.4785 66.6055ZM71.291 63.5352L70.7754 63.5C70.6113 63.0625 70.334 62.8438 69.9434 62.8438C69.7715 62.8438 69.5879 62.8828 69.3926 62.9609C69.2051 63.0391 69.0488 63.1211 68.9238 63.207C68.7988 63.2852 68.6348 63.4023 68.4316 63.5586C68.4316 63.668 68.4277 64.0234 68.4199 64.625C68.4199 65.2266 68.4238 65.8945 68.4316 66.6289C68.4473 67.3633 68.4629 67.7578 68.4785 67.8125C68.4082 68.0469 68.2715 68.1641 68.0684 68.1641C67.9277 68.1641 67.791 68.1094 67.6582 68C67.5332 67.8828 67.4551 67.7422 67.4238 67.5781C67.5723 65.0703 67.7051 63.1758 67.8223 61.8945L68.3496 62.0117L68.3848 62.7969C68.9316 62.3438 69.4004 62.1172 69.791 62.1172C70.2207 62.1172 70.5801 62.2148 70.8691 62.4102C71.166 62.6055 71.3145 62.8906 71.3145 63.2656C71.3145 63.3828 71.3066 63.4727 71.291 63.5352ZM75.7324 62.1875L75.6738 62.6914C75.3457 62.6445 75.0645 62.6211 74.8301 62.6211C74.291 62.6211 73.8457 62.7852 73.4941 63.1133C73.1426 63.4336 72.9004 63.8164 72.7676 64.2617C72.6426 64.6992 72.5801 65.1875 72.5801 65.7266C72.5801 65.9766 72.5957 66.1992 72.627 66.3945C72.6582 66.5898 72.7129 66.7812 72.791 66.9688C72.877 67.1562 73.0059 67.3047 73.1777 67.4141C73.3574 67.5156 73.5762 67.5664 73.834 67.5664C74.1777 67.5664 74.6152 67.5 75.1465 67.3672C75.3105 67.3047 75.4395 67.2734 75.5332 67.2734C75.7207 67.2734 75.834 67.4922 75.873 67.9297C75.1855 68.1484 74.5488 68.2578 73.9629 68.2578C73.1113 68.2578 72.5332 68.0508 72.2285 67.6367C71.9316 67.2148 71.7832 66.5352 71.7832 65.5977C71.7832 65.0508 71.8184 64.5742 71.8887 64.168C71.9668 63.7539 72.0996 63.3711 72.2871 63.0195C72.4746 62.6602 72.7441 62.3867 73.0957 62.1992C73.4551 62.0117 73.8926 61.918 74.4082 61.918C74.9863 61.918 75.4277 62.0078 75.7324 62.1875ZM79.7051 64.5078L79.5762 63.9805L83.4785 63.7109C83.6738 63.7188 83.8379 63.793 83.9707 63.9336C84.1113 64.0664 84.1816 64.2109 84.1816 64.3672C84.1816 64.4688 84.1426 64.5586 84.0645 64.6367C83.9863 64.7148 83.8691 64.7617 83.7129 64.7773L79.7051 64.5078Z" fill="white"/>
<defs>
<clipPath id="clip0_21_1345">
<rect width="32" height="32" fill="white" transform="translate(42.5)"/>
</clipPath>
</defs>
</svg>
