<svg width="80" height="80" viewBox="0 0 80 80" fill="none" xmlns="http://www.w3.org/2000/svg">
<g clip-path="url(#clip0_21_55)">
<path d="M79.6156 39.9604C79.6156 61.8375 61.8844 79.5677 40.0094 79.5677C18.1354 79.5677 0.404175 61.8375 0.404175 39.9604C0.404175 18.0833 18.1354 0.355194 40.0125 0.355194C61.8896 0.355194 79.6156 18.0875 79.6156 39.9604Z" fill="#DACBAF"/>
<path d="M68.0177 67.9708C52.5479 83.4344 27.4719 83.4344 12.0052 67.9708C-3.46248 52.5063 24.1406 61.3823 44.4125 53.1646C90.9334 34.299 52.5479 -3.51249 68.0177 11.9552C83.4865 27.424 83.4865 52.5011 68.0177 67.9708Z" fill="#8FBCAC"/>
<mask id="mask0_21_55" style="mask-type:luminance" maskUnits="userSpaceOnUse" x="21" y="10" width="38" height="41">
<path d="M21.2917 10.4677H58.6917V50.4677H21.2917V10.4677Z" fill="white"/>
</mask>
<g mask="url(#mask0_21_55)">
<path d="M21.2917 32.3969C21.8979 32.2334 22.4667 32.1208 23.0073 31.9271C24.8386 31.2698 26.2938 30.1396 27.2896 28.4448C27.6636 27.8083 27.7802 27.1927 27.5 26.4511C26.8781 24.8063 26.3865 23.1156 26.1396 21.3656C25.7094 18.3229 26.2063 15.4073 27.3709 12.5886C27.6563 11.8959 27.9792 11.2177 28.3115 10.4719C29.0302 11.0469 29.6906 11.5709 30.3479 12.1011C32.9823 14.2281 35.4021 16.5729 37.5761 19.174C38.6677 20.4802 40.9146 20.4959 41.9917 19.1927C44.4844 16.175 47.3656 13.5667 50.3927 11.1063C50.6063 10.9313 50.8167 10.7531 51.074 10.5396C51.2729 10.9156 51.4677 11.2563 51.6375 11.6084C52.9261 14.2802 53.5854 17.0886 53.3969 20.0646C53.2771 21.9573 52.7386 23.7594 52.0959 25.5302C51.8427 26.2261 51.5813 26.9209 51.2688 27.5927C51.0709 28.0198 51.1365 28.3521 51.3802 28.7271C52.6729 30.7198 54.524 31.8177 56.8438 32.1667C57.3386 32.2417 57.8438 32.2594 58.3167 32.3011C57.9563 32.575 56.5511 32.7854 55.0781 32.7531C56.5136 34.199 57.8344 35.6573 58.7094 37.4636C57.8875 37.0177 57.0802 36.5792 56.2719 36.1406C56.2417 36.1781 56.2125 36.2156 56.1834 36.2542C57.3906 38.0281 58.0594 40.0011 58.3875 42.1094C57.7584 40.8552 56.9188 39.8021 55.7375 39.1479C56.1094 40.1604 56.4959 41.2146 56.8823 42.2688C56.8406 42.2938 56.799 42.3188 56.7573 42.3427C55.8073 40.7729 54.3146 40.1781 52.5729 39.9354C52.7459 40.2813 52.8938 40.5792 53.0844 40.9625C51.3927 40.5854 50.1417 41.3354 48.9302 42.2146C47.7792 43.049 46.7125 43.9771 45.7896 45.0615C45.6781 45.1938 45.5948 45.375 45.5615 45.5458C45.3688 46.5406 44.9802 47.4542 44.3198 48.2146C43.9834 48.6021 43.5177 48.8844 43.0875 49.1823C42.6979 49.4521 42.2771 49.6781 41.8698 49.9229C41.2896 50.2729 40.6667 50.4656 39.9854 50.4531C39.3031 50.4396 38.7354 50.1875 38.2531 49.6948C38.0427 49.4792 37.7698 49.3104 37.5 49.1688C36.5406 48.6656 35.8125 47.9188 35.3156 46.9802C34.9229 46.2354 34.6719 45.4188 34.3136 44.6542C33.8656 43.6979 33.4042 42.7479 32.8875 41.8271C32.5271 41.1833 31.9334 40.7761 31.2136 40.5709C29.224 40.0042 27.2146 39.8136 25.1761 40.2823C23.8677 40.5823 22.8073 41.3031 21.8886 42.2552C21.7875 42.3594 21.6906 42.4667 21.5156 42.5271C21.7 42.225 21.8427 41.8844 22.0761 41.6261C22.6427 41 23.2448 40.4042 23.8469 39.8115C24.4844 39.1823 25.1396 38.5698 25.7438 37.8969C24.3896 38.3156 23.1698 38.9333 22.2302 40.0302C22.7375 38.1396 23.6125 36.4531 24.9479 34.999C24.1938 35.0511 23.5781 35.3823 23.0886 35.9073C22.6156 36.4156 22.2042 36.9813 21.75 37.5406C22.4354 35.099 23.8834 33.1604 25.6792 31.4281C24.3104 32.1511 22.8917 32.5646 21.2917 32.3969ZM31.2969 22.4229C29.5698 20.3854 28.7636 18.9615 28.8188 17.9844C29.2323 19.2438 29.8938 20.1979 31.1521 20.6729C29.4386 18.2261 28.7146 15.4959 28.4886 12.5917C28.4406 12.6198 28.4073 12.6271 28.399 12.6448C28.3584 12.7417 28.3261 12.8427 28.2875 12.9417C27.4136 15.1386 27.1886 17.4271 27.3219 19.7667C27.4823 22.5823 28.2334 25.1834 30.0656 27.4C30.5125 27.9396 30.4625 28.1865 29.8469 28.5084C29.3646 28.7615 28.9719 29.0938 28.6792 29.5531C28.5084 29.8198 28.3375 30.0948 28.1219 30.324C27.3323 31.1615 26.5146 31.9729 25.725 32.8104C25.2323 33.3313 24.7698 33.8792 24.2927 34.4146C25.7292 33.7542 27.1896 33.2677 28.7438 33.0729C26.925 34.1344 25.599 35.6979 24.3167 37.325C26.2136 36.4844 28.1834 36.1979 30.2438 36.4386C28.6729 36.9042 27.3073 37.7156 26.0959 38.7969C27.4771 38.2802 28.8761 38.2927 30.2927 38.5323C29.4542 38.5833 28.6094 38.5833 27.8604 39.0521C27.9542 39.0938 28.0438 39.0938 28.1313 39.1052C29.2834 39.2594 30.4417 39.3792 31.5844 39.5823C32.4636 39.7375 33.2167 40.1917 33.6479 40.9958C34.1261 41.8896 34.5656 42.8115 34.9375 43.7542C35.3375 44.7677 35.7709 45.7302 36.7052 46.3708C36.7115 46.375 36.6938 46.4136 36.6813 46.4594C36.4594 46.4115 36.2375 46.3636 35.975 46.3063C36.3354 47.3281 36.9761 48.0167 37.874 48.475C38.3125 48.699 38.775 48.8188 39.2511 48.6375C39.5052 48.5417 39.7271 48.3667 39.9646 48.2271C39.7594 48.0615 39.5615 47.8802 39.3448 47.7302C38.9031 47.4261 38.4052 47.1875 38.0136 46.8313C37.5979 46.4542 37.6834 46.0354 38.1354 45.6948C39.1656 44.9188 41.3323 44.9459 42.3469 45.7479C42.7406 46.0583 42.8261 46.4021 42.4865 46.7667C42.1781 47.0969 41.7771 47.3458 41.4 47.6052C41.1844 47.7542 40.925 47.8406 40.7021 47.9802C40.4927 48.1104 40.4302 48.2823 40.6917 48.4323C41.2906 48.7771 41.9104 48.9563 42.5781 48.6313C43.5677 48.1511 44.1146 47.3302 44.3646 46.2865C44.3834 46.2063 44.3667 46.1177 44.3667 46.0156C44.2073 46.0438 44.0823 46.0656 43.9563 46.0875C45.1271 45.1667 45.4188 43.8708 45.5448 42.4979C45.5771 42.4969 45.6084 42.4969 45.6406 42.4969C45.6875 42.9136 45.7334 43.3323 45.7875 43.8156C47.0615 42.5042 48.4417 41.424 50.024 40.5438C49.9281 40.4938 49.8917 40.4563 49.8625 40.4615C49.6459 40.499 49.4323 40.5448 49.1313 40.6052C50.0042 39.7886 50.9448 39.3031 52.1334 39.224C51.5761 38.7125 50.9552 38.5594 50.3156 38.4386C51.7573 38.1469 53.1396 38.3209 54.5063 38.8625C54.0281 38.45 53.5438 38.049 53.0021 37.749C52.449 37.4427 51.8396 37.2354 51.2552 36.9844C53.2417 37.1594 55.1344 37.6052 56.7636 38.8511C56.1031 37.5438 54.9688 36.7083 53.8021 35.9052C53.825 35.8771 53.8479 35.8469 53.8709 35.8177C54.6323 36.2677 55.3917 36.7177 56.2448 37.2219C55.2646 35.5781 53.9386 34.425 52.4459 33.4344C52.4719 33.3834 52.4979 33.3334 52.5229 33.2833C53.5604 33.6313 54.5969 33.9792 55.6344 34.3271C55.3313 33.9552 54.9646 33.6167 54.6 33.2761C53.4584 32.2104 52.2781 31.1823 51.1938 30.0615C50.6094 29.4573 50.1209 28.7875 49.2417 28.6011C49.2042 28.5927 49.1604 28.5761 49.1365 28.5479C49.0459 28.4417 48.9156 28.3375 48.8948 28.2177C48.8844 28.15 49.0469 28.0281 49.1531 27.9698C49.5094 27.7781 49.874 27.6031 50.2667 27.4063C49.525 26.8906 49.4938 26.674 50.0084 25.9886C50.1198 25.8406 50.2323 25.6927 50.3427 25.5438C50.9334 24.7511 51.3584 23.8781 51.6563 22.9344C52.2229 21.1417 52.1917 19.3021 52.0906 17.4625C52.0042 15.8969 51.7104 14.3656 51.1209 12.9031C51.0719 12.7834 51.0104 12.6677 50.9219 12.4813C50.674 15.4823 49.8781 18.1938 48.2656 20.6698C49.4115 20.1844 50.1531 19.3375 50.6052 18.2031C50.2584 19.8875 49.3542 21.2313 48.1209 22.4063C48.5969 22.2406 49.0729 22.0813 49.449 21.7917C49.8375 21.4917 50.1802 21.0979 50.4469 20.6834C50.6969 20.2959 50.8219 19.8271 51.0021 19.3948C50.6542 21.8021 49.2219 23.6167 47.6094 25.4271C49.024 25.1531 49.7959 24.2906 50.3302 23.1448C50.0469 24.4167 49.3792 25.4375 48.3677 26.2281C48.0688 26.4615 47.724 26.4281 47.3896 26.2646C47.0792 26.1125 47.0073 25.8396 47.0386 25.5323C47.0636 25.2844 47.0886 25.0271 47.1719 24.7959C47.3584 24.2792 47.5813 23.7771 47.8292 23.1719C47.1198 23.8406 46.4646 24.4292 45.8448 25.0521C45.2209 25.6802 44.6313 26.3427 44.0469 26.9698C44.9334 24.7834 45.8146 22.5511 47.2531 20.5906C46.2698 21.0459 45.575 21.7948 45.0052 22.6886C45.0584 22.424 45.1521 22.1802 45.2198 21.9302C46.0375 18.8948 47.4427 16.1688 49.4563 13.7469C49.9865 13.1084 50.4198 12.3875 50.8854 11.6969C50.9667 11.5761 50.9854 11.4136 51.0323 11.2709C50.899 11.2781 50.8448 11.3136 50.8 11.3594C48.9802 13.2636 47.1146 15.1271 45.3552 17.0865C43.7094 18.9209 42.4438 20.9886 42.1781 23.5292C42.1396 23.5281 42.1011 23.5261 42.0625 23.5261C42.0625 22.7365 42.0625 21.9469 42.0625 21.1302C40.5219 21.1302 39.0729 21.1302 37.6146 21.1302C37.6823 21.9521 37.699 22.7584 37.4511 23.5386C37.3011 22.8854 37.1959 22.2438 37.0052 21.6302C36.5052 20.0167 35.5521 18.6479 34.4334 17.4281C32.5031 15.3209 30.4844 13.2938 28.5 11.2354C28.4896 11.224 28.4542 11.2375 28.3396 11.2459C28.425 11.4761 28.4656 11.7094 28.5854 11.8896C29.0156 12.5406 29.4479 13.1917 29.9229 13.8104C31.3292 15.6448 32.6052 17.5542 33.4417 19.7261C33.7906 20.6323 34.1427 21.5365 34.4948 22.4417C33.8927 21.7063 33.2625 21.0386 32.399 20.6292C32.9781 21.6792 33.5844 22.6896 34.1021 23.7427C34.624 24.8042 35.0584 25.9073 35.3865 26.6594C34.3354 25.6844 33.0531 24.4948 31.7021 23.2427C31.7906 23.4448 31.8531 23.5688 31.9011 23.6979C32.1052 24.2552 32.35 24.8031 32.4959 25.3761C32.674 26.0781 32.2948 26.5292 31.574 26.4938C31.2584 26.4771 30.8886 26.3938 30.65 26.2063C29.7667 25.5125 29.4229 24.5021 29.1781 23.4438C29.6948 24.5469 30.4146 25.4031 31.6761 25.6396C31.5406 25.4052 31.3719 25.2052 31.2042 25.0031C30.0146 23.5646 28.9896 22.0313 28.4865 20.2052C28.4115 19.9292 28.3834 19.6406 28.3334 19.3573C28.3656 19.3448 28.4 19.3323 28.4334 19.3188C28.7417 20.9188 29.6302 21.975 31.2969 22.4229ZM38.9334 49.1542C39.4823 50.0073 40.825 50.0292 41.4938 49.2386C41.1052 49.0802 40.7073 48.9156 40.3063 48.7573C40.2396 48.7313 40.1511 48.7084 40.0875 48.7302C39.7063 48.8625 39.3313 49.0073 38.9334 49.1542Z" fill="#3F2A0D"/>
</g>
<path d="M37.776 43.8844C37.6604 42.4865 37.5583 41.0896 37.4281 39.6938C37.3417 38.7698 37.1989 37.8563 36.7875 37.0073C36.5198 36.4531 36.1437 36.0781 35.4979 35.9552C34.5219 35.7708 33.8177 35.2 33.4667 34.2531C33.3031 33.8135 33.0083 33.5833 32.5479 33.574C32.0208 33.5635 31.4927 33.5719 30.9656 33.5719C30.9625 33.5344 30.9594 33.4969 30.9573 33.4594C31.2583 33.4177 31.5594 33.3396 31.8604 33.3427C32.7823 33.3542 33.7333 33.2615 34.6187 33.4563C36.4854 33.8667 37.8729 35.5583 37.9719 37.4667C38.0396 38.7594 37.9708 40.0594 37.95 41.3552C37.9385 42.0833 37.9021 42.8104 37.875 43.5375C37.8698 43.6563 37.8531 43.7761 37.8406 43.8938C37.8198 43.8906 37.7979 43.8875 37.776 43.8844Z" fill="#3F2A0D"/>
<path d="M42.4812 43.8875C42.4406 41.7583 42.3448 39.6281 42.3791 37.501C42.4083 35.7062 43.7021 34.0364 45.3343 33.4927C46.2729 33.1802 47.2448 33.2802 48.2083 33.3333C48.5177 33.35 48.826 33.4094 49.1281 33.5406C48.7104 33.5406 48.2916 33.5333 47.8739 33.5417C47.3291 33.5542 46.9239 33.7458 46.7146 34.3125C46.3771 35.2229 45.6198 35.6948 44.7427 35.9489C44.2156 36.1021 43.9073 36.4219 43.6708 36.8687C43.2541 37.6542 43.0843 38.5125 42.9948 39.3812C42.8604 40.6708 42.7656 41.9635 42.6531 43.2552C42.6354 43.4635 42.6135 43.6719 42.5927 43.8802C42.5552 43.8823 42.5187 43.8854 42.4812 43.8875Z" fill="#3F2A0D"/>
<mask id="mask1_21_55" style="mask-type:luminance" maskUnits="userSpaceOnUse" x="20" y="63" width="23" height="1">
<path d="M20 63.0667H42.2667V63.6635H20V63.0667Z" fill="white"/>
</mask>
<g mask="url(#mask1_21_55)">
<path d="M42.0896 63.0781L41.8125 63.0792C37.2479 63.099 33.9011 63.1187 31.7709 63.1375C30.9667 63.1448 30.099 63.1531 29.1677 63.1635L21.9521 63.2479C21.224 63.2562 20.7136 63.2698 20.4198 63.2885C20.1386 63.3063 20.0292 63.3354 20.0917 63.375L20.0813 63.2448C20.1698 63.3052 20.3604 63.35 20.6521 63.3781C20.9604 63.4156 21.5052 63.4448 22.2886 63.4646L22.9459 63.474C23.1594 63.474 26.0167 63.501 31.5177 63.5562C33.9459 63.575 36.5177 63.5917 39.2323 63.6062L39.8719 63.5979L40.3761 63.5708L40.7636 63.5281C40.9823 63.4948 41.149 63.4563 41.2615 63.4125L41.7782 63.1177L41.9073 63.0885L42.0896 63.0781Z" fill="white"/>
</g>
<mask id="mask2_21_55" style="mask-type:luminance" maskUnits="userSpaceOnUse" x="37" y="63" width="23" height="1">
<path d="M37.7333 63.0667H60V63.6635H37.7333V63.0667Z" fill="white"/>
</mask>
<g mask="url(#mask2_21_55)">
<path d="M37.9011 63.0781L38.1792 63.0792C42.7427 63.099 46.0896 63.1187 48.2198 63.1375C49.024 63.1448 49.8917 63.1531 50.8229 63.1635L58.0396 63.2479C58.7667 63.2562 59.2781 63.2698 59.5709 63.2885C59.8521 63.3063 59.9615 63.3354 59.899 63.375L59.9104 63.2448C59.8219 63.3052 59.6313 63.35 59.3386 63.3781C59.0313 63.4156 58.4854 63.4448 57.7021 63.4646L57.0459 63.474C56.8313 63.474 53.974 63.501 48.474 63.5562C46.0448 63.575 43.4729 63.5917 40.7594 63.6062L40.1188 63.5979L39.6146 63.5708L39.2271 63.5281C39.0084 63.4948 38.8427 63.4563 38.7292 63.4125L38.2125 63.1177L38.0834 63.0885L37.9011 63.0781Z" fill="white"/>
</g>
<path d="M20.6941 59.7747H17.4274L16.7816 61.2872H15.5316L18.4691 54.7538H19.6649L22.6149 61.2872H21.3441L20.6941 59.7747ZM20.2899 58.8247L19.0607 55.9663L17.8357 58.8247H20.2899Z" fill="white"/>
<path d="M28.3138 61.2872L26.9805 59.3747C26.9242 59.3809 26.8409 59.383 26.7305 59.383H25.2555V61.2872H24.043V54.7538H26.7305C27.2971 54.7538 27.7898 54.8476 28.2096 55.033C28.6284 55.2195 28.9492 55.4872 29.1721 55.8372C29.3971 56.1851 29.5096 56.5986 29.5096 57.0788C29.5096 57.5705 29.3898 57.9945 29.1513 58.3497C28.9117 58.7028 28.568 58.9663 28.118 59.1413L29.6221 61.2872H28.3138ZM28.2888 57.0788C28.2888 56.6622 28.1513 56.3413 27.8763 56.1163C27.6034 55.8913 27.2023 55.7788 26.6721 55.7788H25.2555V58.383H26.6721C27.2023 58.383 27.6034 58.2705 27.8763 58.0455C28.1513 57.8184 28.2888 57.4955 28.2888 57.0788Z" fill="white"/>
<path d="M34.4823 61.3789C33.824 61.3789 33.2281 61.2351 32.6948 60.9455C32.1636 60.657 31.7469 60.258 31.4448 59.7497C31.1448 59.2393 30.9948 58.6622 30.9948 58.0205C30.9948 57.3789 31.1459 56.8039 31.449 56.2955C31.7542 55.7851 32.1719 55.3851 32.7031 55.0955C33.2365 54.807 33.8334 54.6622 34.4948 54.6622C35.0281 54.6622 35.5156 54.756 35.9573 54.9414C36.399 55.1278 36.7719 55.3987 37.0781 55.7539L36.2948 56.4914C35.8219 55.981 35.2406 55.7247 34.549 55.7247C34.1011 55.7247 33.7 55.8237 33.3448 56.0205C32.9886 56.2153 32.7115 56.4872 32.5115 56.8372C32.3136 57.1851 32.2156 57.5789 32.2156 58.0205C32.2156 58.4622 32.3136 58.858 32.5115 59.208C32.7115 59.556 32.9886 59.8278 33.3448 60.0247C33.7 60.2195 34.1011 60.3164 34.549 60.3164C35.2406 60.3164 35.8219 60.058 36.2948 59.5414L37.0781 60.2872C36.7719 60.6435 36.3969 60.9143 35.9531 61.0997C35.5084 61.2862 35.0177 61.3789 34.4823 61.3789Z" fill="white"/>
<path d="M43.0801 59.7747H39.8134L39.1676 61.2872H37.9176L40.8551 54.7538H42.0509L45.0009 61.2872H43.7301L43.0801 59.7747ZM42.6759 58.8247L41.4468 55.9663L40.2218 58.8247H42.6759Z" fill="white"/>
<path d="M46.429 54.7538H49.2832C49.9801 54.7538 50.5998 54.8903 51.1415 55.1622C51.6832 55.432 52.1019 55.8143 52.3998 56.308C52.6998 56.8028 52.8498 57.3736 52.8498 58.0205C52.8498 58.6684 52.6998 59.2393 52.3998 59.733C52.1019 60.2278 51.6832 60.6111 51.1415 60.883C50.5998 61.1528 49.9801 61.2872 49.2832 61.2872H46.429V54.7538ZM49.229 60.2622C49.7061 60.2622 50.1269 60.1705 50.4915 59.9872C50.8551 59.8018 51.1342 59.5393 51.329 59.1997C51.5259 58.8611 51.6248 58.4684 51.6248 58.0205C51.6248 57.5736 51.5259 57.1809 51.329 56.8413C51.1342 56.5028 50.8551 56.2413 50.4915 56.058C50.1269 55.8726 49.7061 55.7788 49.229 55.7788H47.6415V60.2622H49.229Z" fill="white"/>
<path d="M54.7339 54.7538H55.9464V61.2872H54.7339V54.7538Z" fill="white"/>
<path d="M62.5454 59.7747H59.2788L58.6329 61.2872H57.3829L60.3204 54.7538H61.5163L64.4663 61.2872H63.1954L62.5454 59.7747ZM62.1413 58.8247L60.9121 55.9663L59.6871 58.8247H62.1413Z" fill="white"/>
<path d="M27.7006 67.4441H28.5922V67.6566H27.7006V67.4441Z" fill="#D1622E"/>
<path d="M31.4905 68.2566V68.4732H29.5364V68.2982L31.1155 66.3066H29.5572V66.0899H31.4489V66.2649L29.8739 68.2566H31.4905Z" fill="#D1622E"/>
<path d="M33.6127 68.4941C33.3762 68.4941 33.1627 68.442 32.971 68.3358C32.7794 68.2306 32.6294 68.0858 32.521 67.9024C32.4127 67.7191 32.3585 67.5128 32.3585 67.2816C32.3585 67.0545 32.4127 66.8483 32.521 66.6649C32.6294 66.4795 32.7794 66.3337 32.971 66.2274C33.1627 66.1222 33.3762 66.0691 33.6127 66.0691C33.8481 66.0691 34.0606 66.1222 34.2502 66.2274C34.4419 66.3306 34.5919 66.4753 34.7002 66.6608C34.8085 66.8472 34.8627 67.0545 34.8627 67.2816C34.8627 67.5128 34.8085 67.7212 34.7002 67.9066C34.5919 68.0899 34.4419 68.2347 34.2502 68.3399C34.0606 68.4431 33.8481 68.4941 33.6127 68.4941ZM33.6127 68.2691C33.8012 68.2691 33.971 68.2274 34.121 68.1441C34.2731 68.0587 34.3929 67.9399 34.4794 67.7899C34.5679 67.6378 34.6127 67.4681 34.6127 67.2816C34.6127 67.0962 34.5679 66.9274 34.4794 66.7774C34.3929 66.6253 34.2731 66.5066 34.121 66.4233C33.971 66.3378 33.8012 66.2941 33.6127 66.2941C33.4231 66.2941 33.2523 66.3378 33.1002 66.4233C32.9471 66.5066 32.8262 66.6253 32.7377 66.7774C32.6512 66.9274 32.6085 67.0962 32.6085 67.2816C32.6085 67.4681 32.6512 67.6378 32.7377 67.7899C32.8262 67.9399 32.9471 68.0587 33.1002 68.1441C33.2523 68.2274 33.4231 68.2691 33.6127 68.2691Z" fill="#D1622E"/>
<path d="M37.0537 68.4941C36.8173 68.4941 36.6037 68.442 36.4121 68.3358C36.2204 68.2306 36.0704 68.0858 35.9621 67.9024C35.8537 67.7191 35.7996 67.5128 35.7996 67.2816C35.7996 67.0545 35.8537 66.8483 35.9621 66.6649C36.0704 66.4795 36.2204 66.3337 36.4121 66.2274C36.6037 66.1222 36.8173 66.0691 37.0537 66.0691C37.2891 66.0691 37.5016 66.1222 37.6912 66.2274C37.8829 66.3306 38.0329 66.4753 38.1412 66.6608C38.2496 66.8472 38.3037 67.0545 38.3037 67.2816C38.3037 67.5128 38.2496 67.7212 38.1412 67.9066C38.0329 68.0899 37.8829 68.2347 37.6912 68.3399C37.5016 68.4431 37.2891 68.4941 37.0537 68.4941ZM37.0537 68.2691C37.2423 68.2691 37.4121 68.2274 37.5621 68.1441C37.7141 68.0587 37.8339 67.9399 37.9204 67.7899C38.0089 67.6378 38.0537 67.4681 38.0537 67.2816C38.0537 67.0962 38.0089 66.9274 37.9204 66.7774C37.8339 66.6253 37.7141 66.5066 37.5621 66.4233C37.4121 66.3378 37.2423 66.2941 37.0537 66.2941C36.8641 66.2941 36.6933 66.3378 36.5412 66.4233C36.3881 66.5066 36.2673 66.6253 36.1787 66.7774C36.0923 66.9274 36.0496 67.0962 36.0496 67.2816C36.0496 67.4681 36.0923 67.6378 36.1787 67.7899C36.2673 67.9399 36.3881 68.0587 36.5412 68.1441C36.6933 68.2274 36.8641 68.2691 37.0537 68.2691Z" fill="#D1622E"/>
<path d="M40.3448 66.0899C40.65 66.0899 40.8885 66.1639 41.0615 66.3107C41.2333 66.4555 41.3198 66.6545 41.3198 66.9066C41.3198 67.1628 41.2333 67.3628 41.0615 67.5066C40.8885 67.6482 40.65 67.7191 40.3448 67.7191H39.7073V68.4732H39.4531V66.0899H40.3448ZM40.3406 67.4982C40.576 67.4982 40.7552 67.4472 40.8781 67.3441C41.0031 67.242 41.0656 67.0962 41.0656 66.9066C41.0656 66.7149 41.0031 66.568 40.8781 66.4649C40.7552 66.3597 40.576 66.3066 40.3406 66.3066H39.7073V67.4982H40.3406Z" fill="#D1622E"/>
<path d="M43.9783 67.8357H42.6491L42.3658 68.4732H42.1033L43.1908 66.0899H43.4408L44.5283 68.4732H44.2616L43.9783 67.8357ZM43.8866 67.6316L43.3116 66.3524L42.7408 67.6316H43.8866Z" fill="#D1622E"/>
<path d="M47.1375 68.4732L46.5916 67.7066C46.5302 67.7149 46.4666 67.7191 46.4 67.7191H45.7625V68.4732H45.5083V66.0899H46.4C46.7052 66.0899 46.9437 66.1639 47.1166 66.3107C47.2885 66.4555 47.375 66.6545 47.375 66.9066C47.375 67.093 47.3271 67.2503 47.2333 67.3774C47.1385 67.5055 47.0041 67.5982 46.8291 67.6566L47.4125 68.4732H47.1375ZM46.3958 67.5024C46.6312 67.5024 46.8104 67.4514 46.9333 67.3482C47.0583 67.243 47.1208 67.0962 47.1208 66.9066C47.1208 66.7149 47.0583 66.568 46.9333 66.4649C46.8104 66.3597 46.6312 66.3066 46.3958 66.3066H45.7625V67.5024H46.3958Z" fill="#D1622E"/>
<path d="M49.5921 68.4941C49.3556 68.4941 49.1421 68.4431 48.9504 68.3399C48.7609 68.2347 48.6129 68.0899 48.5046 67.9066C48.3963 67.7212 48.3421 67.5128 48.3421 67.2816C48.3421 67.0545 48.3963 66.8472 48.5046 66.6608C48.6129 66.4753 48.7609 66.3306 48.9504 66.2274C49.1421 66.1222 49.3556 66.0691 49.5921 66.0691C49.7692 66.0691 49.9338 66.1003 50.0838 66.1608C50.2338 66.2191 50.3598 66.3056 50.4629 66.4191L50.3046 66.5774C50.1181 66.3889 49.8838 66.2941 49.6004 66.2941C49.4109 66.2941 49.239 66.3378 49.0838 66.4233C48.9306 66.5097 48.8098 66.6274 48.7213 66.7774C48.6348 66.9274 48.5921 67.0962 48.5921 67.2816C48.5921 67.4681 48.6348 67.6358 48.7213 67.7858C48.8098 67.9358 48.9306 68.0545 49.0838 68.1399C49.239 68.2264 49.4109 68.2691 49.6004 68.2691C49.8859 68.2691 50.1213 68.1733 50.3046 67.9816L50.4629 68.1441C50.3598 68.2587 50.2317 68.3462 50.0796 68.4066C49.9296 68.4649 49.7671 68.4941 49.5921 68.4941Z" fill="#D1622E"/>
<path d="M51.404 67.4441H52.2957V67.6566H51.404V67.4441Z" fill="#D1622E"/>
</g>
<defs>
<clipPath id="clip0_21_55">
<rect width="80" height="80" fill="white"/>
</clipPath>
</defs>
</svg>
